<?xml version="1.0" encoding="UTF-8"?>
<svg version="1.1" xmlns="http://www.w3.org/2000/svg" width="584" height="590">
<path d="M0 0 C192.72 0 385.44 0 584 0 C584 194.7 584 389.4 584 590 C391.28 590 198.56 590 0 590 C0 395.3 0 200.6 0 0 Z " fill="#FDFDFD" transform="translate(0,0)"/>
<path d="M0 0 C0.7823703 0.00587128 1.5647406 0.01174255 2.37081909 0.01779175 C39.62041305 0.34434717 71.98279389 13.80781672 98.25 40.5 C122.68872967 66.91248904 133.41642335 98.92188036 133.4375 134.5625 C133.44974609 135.65626953 133.46199219 136.75003906 133.47460938 137.87695312 C133.49153688 147.36199964 132.29324423 156.14441876 129.08203125 165.08203125 C128.48004873 166.83145463 127.94376417 168.60394284 127.44921875 170.38671875 C118.86248249 201.14009574 96.12511658 228.36739011 68.66015625 244.20703125 C39.54430094 260.35956956 4.91885513 266.64497081 -27.75 258.5 C-28.39952637 258.33902832 -29.04905273 258.17805664 -29.71826172 258.01220703 C-51.91715163 252.27082954 -70.76026512 240.62445975 -87.75 225.5 C-88.45640625 224.89027344 -89.1628125 224.28054688 -89.890625 223.65234375 C-101.79153503 212.67650446 -110.0933496 198.06538505 -116.75 183.5 C-117.22953125 182.57316406 -117.7090625 181.64632812 -118.203125 180.69140625 C-122.39078392 172.40438243 -124.05462859 163.55894137 -125.75 154.5 C-125.97816406 153.29988281 -126.20632812 152.09976563 -126.44140625 150.86328125 C-132.09231548 116.8392753 -123.70549745 82.45172489 -103.75 54.5 C-101.1893982 51.06811593 -98.52340156 47.76152023 -95.75 44.5 C-95.12609375 43.74203125 -94.5021875 42.9840625 -93.859375 42.203125 C-71.10566022 15.37964009 -34.85656678 -0.4918437 0 0 Z " fill="#222D37" transform="translate(290.75,164.5)"/>
<path d="M0 0 C3.15934645 2.99479715 4.24761127 5.10170736 4.4609375 9.36328125 C4.45301131 11.01325048 4.42377211 12.66323272 4.375 14.3125 C4.37306641 15.53743164 4.37306641 15.53743164 4.37109375 16.78710938 C4.23468464 26.29785572 2.01620623 32.68393708 -3.25 40.5625 C-4.33403446 42.22916753 -5.41597242 43.89720006 -6.49609375 45.56640625 C-7.06569824 46.44312988 -7.63530273 47.31985352 -8.22216797 48.22314453 C-11.93251757 54.018464 -15.4576176 59.92848289 -19.01464844 65.81860352 C-21.8926893 70.57261605 -24.79456067 75.31072926 -27.74609375 80.01953125 C-28.5822522 81.35528198 -28.5822522 81.35528198 -29.43530273 82.71801758 C-31.64421684 85.93953735 -33.35720915 87.52887293 -37 89 C-41.65338661 89.7838026 -45.94011688 90.10324701 -50.1953125 87.82421875 C-53.56969003 85.09224363 -56.1887637 82.36039513 -57 78 C-57.05579187 68.96171721 -52.7077143 62.52346991 -48.125 55.0625 C-47.35026864 53.77532218 -46.57692033 52.48731095 -45.80493164 51.19848633 C-43.90465351 48.03464703 -41.98631133 44.88229379 -40.05999756 41.73425293 C-38.50772126 39.19458696 -36.96728529 36.64777702 -35.42578125 34.1015625 C-32.9698455 30.05556083 -30.49348262 26.02296224 -28 22 C-32.15302697 17.4190854 -36.81478872 14.35300912 -42.0625 11.125 C-42.91666504 10.59471191 -43.77083008 10.06442383 -44.65087891 9.51806641 C-46.34484921 8.46987619 -48.0410754 7.42532125 -49.73974609 6.38476562 C-51.55752885 5.27108407 -53.3678837 4.145283 -55.17578125 3.015625 C-96.18861048 -21.91257801 -143.73752041 -34.20187943 -191.5 -34.25 C-192.29103119 -34.25133942 -193.08206238 -34.25267883 -193.89706421 -34.25405884 C-206.5001319 -34.24944623 -218.61139217 -33.44148748 -231 -31 C-232.92585938 -30.65775391 -232.92585938 -30.65775391 -234.890625 -30.30859375 C-238.61468967 -29.61528384 -242.30381286 -28.82891047 -246 -28 C-246.71881348 -27.84337891 -247.43762695 -27.68675781 -248.17822266 -27.52539062 C-267.95019265 -23.16226725 -287.15353712 -16.60601168 -305 -7 C-306.89487946 -6.10215078 -308.7907192 -5.20632547 -310.6875 -4.3125 C-323.92828713 2.31675621 -336.42268464 10.79881487 -348 20 C-348.89589844 20.70382813 -349.79179687 21.40765625 -350.71484375 22.1328125 C-365.50593381 33.97417298 -379.2434607 47.13721788 -391 62 C-391.86056019 63.04804175 -392.72258903 64.09487897 -393.5859375 65.140625 C-416.98368817 93.7623352 -432.04261789 127.65228069 -442 163 C-442.21672363 163.7636084 -442.43344727 164.5272168 -442.65673828 165.31396484 C-445.39781745 175.11505985 -447.10857111 184.87012621 -448 195 C-448.08540039 195.95874023 -448.17080078 196.91748047 -448.25878906 197.90527344 C-450.50443646 225.80846313 -450.19780423 253.63253778 -444 281 C-443.66307129 282.52995605 -443.66307129 282.52995605 -443.31933594 284.09082031 C-433.63124472 327.11609879 -413.41602384 368.80202728 -383 401 C-381.86970833 402.30794571 -380.74456689 403.62036248 -379.625 404.9375 C-372.61810054 412.9453851 -365.06112671 420.20280461 -356.734375 426.82421875 C-354.93169855 428.25863415 -353.14956347 429.71930634 -351.390625 431.20703125 C-324.90562207 453.57823935 -288.08715896 474.43944115 -253.7265625 480.47265625 C-249.43165057 481.30333406 -245.20692756 482.41820386 -240.97094727 483.50415039 C-239.65374801 483.84019256 -238.33533625 484.17151102 -237.01586914 484.49853516 C-235.7047064 484.8246982 -234.39632514 485.16232884 -233.09155273 485.51318359 C-225.26215553 487.47452126 -217.20807171 487.96592516 -209.1875 488.625 C-208.40355865 488.69003723 -207.61961731 488.75507446 -206.81192017 488.82208252 C-175.14792673 491.41561821 -144.87906893 488.87315807 -114 481 C-113.23187988 480.80760742 -112.46375977 480.61521484 -111.67236328 480.41699219 C-104.56205993 478.61265714 -97.82806457 476.28566141 -91.109375 473.34375 C-88.53995266 472.23334638 -85.96286712 471.20285251 -83.35546875 470.1875 C-60.72049562 461.16218931 -39.6954695 448.57588349 -21 433 C-20.44570313 432.5472168 -19.89140625 432.09443359 -19.3203125 431.62792969 C-5.29265279 420.16177235 8.0260982 407.44665554 19 393 C19.93835111 391.80173004 20.87718751 390.60384002 21.81640625 389.40625 C40.63587246 365.14559576 54.039362 338.13750876 63.8125 309.125 C64.37227539 307.46815186 64.37227539 307.46815186 64.94335938 305.77783203 C67.14917843 299.0753047 68.92469969 292.38239983 70.39331055 285.47998047 C71 283 71 283 72 282 C72.35946339 280.0131341 72.6606836 278.01568068 72.9375 276.015625 C73.19660156 274.14583984 73.19660156 274.14583984 73.4609375 272.23828125 C73.54956055 271.58166504 73.63818359 270.92504883 73.72949219 270.24853516 C73.99336959 268.29898602 74.26610294 266.35064203 74.5390625 264.40234375 C76.32469108 251.35659461 77.18677174 238.47624988 77.18530273 225.31689453 C77.18749074 223.13424185 77.20573924 220.95209542 77.22460938 218.76953125 C77.2620422 209.32402508 76.42311428 200.35091221 75 191 C74.61406996 187.89908721 74.27270153 184.79425466 73.9375 181.6875 C73.85371094 180.93331787 73.76992188 180.17913574 73.68359375 179.40209961 C73.14980529 174.55682248 72.68682229 169.71070595 72.34375 164.84765625 C72.06383301 162.66983284 72.06383301 162.66983284 70 160 C69.40205503 157.4379719 68.98936641 154.87284397 68.5625 152.27734375 C68.16341425 149.81880229 68.16341425 149.81880229 66 148 C65.19384766 146.09570313 65.19384766 146.09570313 64.4140625 143.78125 C63.98130005 142.5135376 63.98130005 142.5135376 63.53979492 141.22021484 C63.2379126 140.32254395 62.93603027 139.42487305 62.625 138.5 C61.98905279 136.66900268 61.35234336 134.8382699 60.71484375 133.0078125 C59.77305329 130.28149755 58.86244896 127.55875785 58.00390625 124.8046875 C56.2243781 119.50867549 53.9616026 116.90292502 49.75 113.1875 C46.5948159 110.26895471 45.16568907 108.79512742 44.28125 104.55078125 C44.25213372 101.24244417 44.34030467 98.24193133 45 95 C47 93 47 93 49.625 92.734375 C59.52589808 92.78021249 69.18607081 93.75378677 79 95 C79 95.66 79 96.32 79 97 C84.08303686 97.11320856 84.08303686 97.11320856 89 96 C89 96.66 89 97.32 89 98 C90.32 98.33 91.64 98.66 93 99 C92.875 101.3125 92.875 101.3125 92 104 C87.9678898 106.72167438 83.76073852 107.61851892 79.05078125 108.47265625 C76.71165223 108.95389234 76.71165223 108.95389234 74 111 C75.08016843 115.0506316 76.33312087 118.95195007 77.8125 122.875 C80.60877388 130.46340124 82.80682971 138.22041975 85 146 C85.30284912 147.07145264 85.30284912 147.07145264 85.61181641 148.16455078 C86.1864487 150.21182565 86.75172142 152.26139138 87.3125 154.3125 C87.63863281 155.50488281 87.96476563 156.69726562 88.30078125 157.92578125 C89 161 89 161 89 165 C89.99 165.33 90.98 165.66 92 166 C92.69775521 170.23112606 93.39133706 174.46291032 94.08129883 178.6953125 C94.31587009 180.130715 94.55151967 181.56594177 94.78833008 183.00097656 C96.97528002 196.26138337 98.17901477 208.97112736 98.125 222.4375 C98.12217514 223.49855957 98.12217514 223.49855957 98.11929321 224.58105469 C98.07071163 240.14826341 97.8550106 255.2481372 94.69140625 270.53125 C94.11682858 273.41387694 93.70539868 276.20246894 93.4375 279.125 C93.0220619 282.80459459 92.17883348 285.50730756 91 289 C89.9825469 292.55210293 89.0240304 296.11990737 88.0625 299.6875 C87.29835216 302.50761593 86.53420376 305.32773136 85.76953125 308.14770508 C85.2464954 310.08635606 84.72844387 312.02635722 84.21484375 313.9675293 C82.34874424 320.96363533 79.93080256 327.37828649 77 334 C76.68788574 334.71833008 76.37577148 335.43666016 76.05419922 336.17675781 C62.47193734 367.4230645 45.22691684 396.41458691 21.640625 421.2109375 C19.48265924 423.49020902 17.41045109 425.80012512 15.375 428.1875 C8.82789119 435.73818023 1.5562498 442.48274565 -6 449 C-6.62559814 449.54293701 -7.25119629 450.08587402 -7.89575195 450.64526367 C-28.75799683 468.63052228 -52.23235233 483.11699617 -77.03027344 495.03198242 C-78.44508662 495.7272891 -79.84822364 496.44654525 -81.24316406 497.1809082 C-87.83945329 500.62006141 -94.56152554 503.12518412 -101.625 505.4375 C-102.80360596 505.82437988 -103.98221191 506.21125977 -105.1965332 506.60986328 C-123.82863183 512.62037878 -142.11802734 516.76640081 -161.61010742 518.70629883 C-164.00338664 518.96054827 -164.00338664 518.96054827 -166.3293457 519.5234375 C-169.76577756 520.13664849 -173.14641525 520.16192005 -176.625 520.16796875 C-177.36024399 520.1721582 -178.09548798 520.17634766 -178.85301208 520.18066406 C-181.23539589 520.19043917 -183.61759944 520.19045291 -186 520.1875 C-186.81300568 520.18722809 -187.62601135 520.18695618 -188.46365356 520.18667603 C-201.08757586 520.16721173 -213.47490442 519.65976727 -226 518 C-227.74213575 517.7912344 -229.48432484 517.58291344 -231.2265625 517.375 C-283.10771886 510.88391559 -331.33106299 487.22010855 -372 455 C-372.84208008 454.33363525 -372.84208008 454.33363525 -373.70117188 453.65380859 C-390.23286308 440.3982741 -405.45435035 425.07134541 -418 408 C-419.64581716 405.93748709 -421.2916507 403.87498726 -422.9375 401.8125 C-467.58105579 344.21449952 -488.37758383 265.52534637 -479.6875 193.375 C-479.17449245 189.57472171 -478.60072949 185.78727052 -478 182 C-477.89316895 181.26797363 -477.78633789 180.53594727 -477.67626953 179.78173828 C-475.9243592 167.83480298 -472.33279663 156.41359699 -468.84863281 144.88183594 C-467.73147972 141.08814343 -466.70951581 137.27167164 -465.70410156 133.44702148 C-464.75645677 130.15359438 -463.52429822 127.02862513 -462.19921875 123.87109375 C-461.31409602 121.75198884 -460.46830094 119.61635664 -459.64453125 117.47265625 C-449.99666704 92.61525427 -436.52337673 68.92752818 -420 48 C-419.36964844 47.17757812 -418.73929688 46.35515625 -418.08984375 45.5078125 C-404.59192871 28.1573098 -388.48494846 11.32311192 -371 -2 C-370.03578125 -2.76957031 -369.0715625 -3.53914063 -368.078125 -4.33203125 C-352.47752211 -16.72871885 -335.68718634 -26.87015191 -318 -36 C-317.26458984 -36.38140137 -316.52917969 -36.76280273 -315.77148438 -37.15576172 C-303.01133181 -43.6894659 -289.5649922 -48.42688358 -276 -53 C-274.824375 -53.39662842 -274.824375 -53.39662842 -273.625 -53.80126953 C-180.74003867 -84.51392104 -79.52716466 -57.49213006 0 0 Z " fill="#323F4A" transform="translate(484,68)"/>
<path d="M0 0 C102.63 0 205.26 0 311 0 C311 0.66 311 1.32 311 2 C310.04037354 2.01458252 309.08074707 2.02916504 308.09204102 2.04418945 C288.56948945 2.36304205 269.33323572 3.01926379 250 6 C249.19062988 6.12133301 248.38125977 6.24266602 247.54736328 6.36767578 C220.19013592 10.54509739 192.75977504 19.69330651 168 32 C166.71971924 32.62793457 166.71971924 32.62793457 165.41357422 33.26855469 C128.51623914 51.4909618 92.97805631 79.0766375 68 112 C67.27941406 112.92683594 66.55882813 113.85367188 65.81640625 114.80859375 C47.58582449 138.59997688 30.62890574 165.99084642 22 194.84375 C21 198 21 198 19.59765625 201.09375 C17.21333354 206.50680696 15.92522369 212.29226006 14.4375 218 C13.83244063 220.29177479 13.22698313 222.58344451 12.62109375 224.875 C12.33862793 225.95394531 12.05616211 227.03289062 11.76513672 228.14453125 C11.1887643 230.29553693 10.56160605 232.4330297 9.91015625 234.5625 C8.56346032 239.64873355 7.79787621 244.8031989 7 250 C6.85530273 250.91040039 6.71060547 251.82080078 6.56152344 252.75878906 C2.64650958 278.22026215 3.11254913 303.52018585 5.75 329.0625 C5.82832062 329.8408017 5.90664124 330.61910339 5.98733521 331.42098999 C7.60736125 347.11149277 11.07987363 361.97042002 16.0625 376.9375 C16.74173289 379.00883687 17.42012938 381.08044822 18.09765625 383.15234375 C18.42113037 384.13485107 18.74460449 385.1173584 19.07788086 386.12963867 C19.95543675 388.86128405 20.77085573 391.60402595 21.5703125 394.359375 C22.70296208 398.17487635 24.08443004 401.71830491 25.8125 405.3125 C26.34101563 406.42238281 26.86953125 407.53226562 27.4140625 408.67578125 C27.93742187 409.77277344 28.46078125 410.86976563 29 412 C29.8963563 413.99976567 30.79218305 415.99976878 31.6875 418 C41.94559936 440.05358829 54.19207321 460.64848731 69.70849609 479.43212891 C70.9730209 480.96724768 72.215315 482.52059286 73.45703125 484.07421875 C84.74435954 498.01157724 97.70911355 511.15112584 112 522 C112.928125 522.74507812 113.85625 523.49015625 114.8125 524.2578125 C148.02261997 550.60563727 186.81849301 569.86515796 228 580 C228.66201416 580.16661133 229.32402832 580.33322266 230.00610352 580.50488281 C238.27228696 582.47415977 246.71890569 583.39910059 255.13476562 584.5 C256.34455078 584.665 257.55433594 584.83 258.80078125 585 C259.89559814 585.144375 260.99041504 585.28875 262.1184082 585.4375 C264.77279412 585.95564837 266.67746324 586.64972881 269 588 C268.34 588.66 267.68 589.32 267 590 C178.89 590 90.78 590 0 590 C0 395.3 0 200.6 0 0 Z " fill="#FDFDFD" transform="translate(0,0)"/>
<path d="M0 0 C3.79813742 2.97089158 5.04909794 6.11975691 6.5625 10.625 C6.88045532 11.56303467 6.88045532 11.56303467 7.20483398 12.52001953 C7.81695781 14.34212292 8.40895358 16.17095094 9 18 C9.41765625 19.27617187 9.41765625 19.27617187 9.84375 20.578125 C13.87466165 33.45951658 16.82012699 46.68755325 19 60 C19.17281494 60.98266846 19.34562988 61.96533691 19.52368164 62.9777832 C20.97321499 71.91217965 21.27897397 80.59113137 21.20581055 89.61303711 C21.18754655 91.93159076 21.18530201 94.24974107 21.18554688 96.56835938 C21.15630205 109.84568757 20.86812849 123.00523947 17.875 136 C17.65835693 136.96494385 17.44171387 137.9298877 17.21850586 138.92407227 C2.57157196 202.15196472 -32.13790961 257.83238374 -87.375 293.1875 C-119.8578705 313.38354274 -169.38112798 337.15559973 -209 330 C-211.3828125 328.1875 -211.3828125 328.1875 -213 326 C-213.44299 322.45607998 -213.53355319 320.07392651 -211.93041992 316.84716797 C-209.15945418 314.19570385 -206.33635351 314.19656357 -202.67578125 313.9453125 C-201.16899738 313.8081015 -199.662244 313.6705553 -198.15551758 313.53271484 C-196.97017929 313.4341922 -196.97017929 313.4341922 -195.76089478 313.3336792 C-164.72574525 310.68852156 -136.38028006 302.01090219 -109 287 C-108.32598145 286.63471191 -107.65196289 286.26942383 -106.95751953 285.89306641 C-91.65599305 277.5181277 -77.97413552 267.2402462 -65.41796875 255.14453125 C-63 253 -63 253 -60.80078125 251.94921875 C-58.4491857 250.70965754 -58.08156068 249.38033857 -57 247 C-55.66015625 245.5703125 -55.66015625 245.5703125 -54.0625 244.125 C-25.97581463 216.79741423 -8.04809485 176.55447929 -0.0625 138.8125 C0.08729309 138.10744324 0.23708618 137.40238647 0.39141846 136.67596436 C3.31310978 122.75458236 4.21130055 109.26255268 4.1875 95.0625 C4.18623108 94.28488312 4.18496216 93.50726624 4.18365479 92.70608521 C4.10188141 66.40040195 0.46736958 41.53068242 -8.90307617 16.76000977 C-10.72812618 11.75679393 -11.33728254 8.33541443 -10 3 C-7.67133148 -1.01048467 -4.26353269 -0.52359173 0 0 Z " fill="#6B7F8E" transform="translate(513,201)"/>
<path d="M0 0 C4.45199445 3.25240581 5.31929865 7.33077144 6.5625 12.4375 C6.87610474 13.70376221 6.87610474 13.70376221 7.19604492 14.99560547 C10.85022467 30.3095685 12.27262388 45.21220948 12.3125 60.9375 C12.31617584 61.63151917 12.31985168 62.32553833 12.32363892 63.04058838 C12.34985369 72.51014848 11.61140095 81.66237417 10 91 C9.84442627 91.93384521 9.68885254 92.86769043 9.52856445 93.82983398 C4.39027195 123.09576087 -7.86987605 152.34904883 -26 176 C-26.66515625 176.87398437 -27.3303125 177.74796875 -28.015625 178.6484375 C-32.73091893 184.68178603 -37.77372863 190.40605125 -43 196 C-43.75925781 196.81339844 -44.51851563 197.62679687 -45.30078125 198.46484375 C-61.28928516 215.02903847 -92.59575588 241.26632376 -116.375 242.5 C-120 242 -120 242 -122 240.4375 C-123.40358168 237.01626965 -123.52306944 234.66148608 -123 231 C-119.81455346 228.01750238 -116.52700517 226.12316421 -112.5703125 224.3359375 C-111.53463135 223.85866211 -110.4989502 223.38138672 -109.43188477 222.88964844 C-108.34061279 222.38981445 -107.24934082 221.88998047 -106.125 221.375 C-87.87849677 212.81403725 -72.73898626 201.74560631 -58 188 C-57.19820313 187.26394531 -56.39640625 186.52789062 -55.5703125 185.76953125 C-29.16730095 160.58966241 -11.77006024 123.71543845 -6 88 C-5.823479 86.96327148 -5.64695801 85.92654297 -5.46508789 84.85839844 C-4.91310723 80.27913212 -4.85654519 75.80630828 -4.8671875 71.19921875 C-4.86575241 69.82283989 -4.86575241 69.82283989 -4.86428833 68.4186554 C-4.86361116 66.49158662 -4.86543297 64.5645155 -4.86962891 62.63745117 C-4.87501461 59.67947334 -4.8696525 56.72164522 -4.86328125 53.76367188 C-4.86394151 51.8880205 -4.86522159 50.01236921 -4.8671875 48.13671875 C-4.86415115 46.80709358 -4.86415115 46.80709358 -4.86105347 45.4506073 C-4.74164768 41.08864233 -4.74164768 41.08864233 -6 37 C-6.32213253 34.90028158 -6.60776462 32.79490885 -6.875 30.6875 C-7.69383167 24.6517181 -8.89499876 18.83327212 -10.4140625 12.9375 C-11.25941775 8.69945234 -11.87171379 5.32500496 -9.4375 1.625 C-6.06489221 -0.62340519 -3.97487617 -0.56783945 0 0 Z " fill="#738897" transform="translate(478,234)"/>
<path d="M0 0 C0.73734375 0.44601562 1.4746875 0.89203125 2.234375 1.3515625 C11.08767255 7.30923266 15.80156307 16.74711272 18 27 C19.02921957 38.28182988 15.70448346 47.94894733 9 57 C2.63043249 64.1797318 -6.78788296 69.40091041 -16.4453125 70.203125 C-28.12901364 70.40750461 -37.43947825 67.26231621 -45.9765625 59.11328125 C-53.76702624 50.67637477 -57.54522394 41.06433718 -57.24609375 29.57421875 C-56.20682492 18.70313688 -50.71500081 10.00961189 -42.9296875 2.5703125 C-30.69763917 -7.38370254 -13.32988345 -8.34221183 0 0 Z " fill="#FAFAFB" transform="translate(313,263)"/>
<path d="M0 0 C0.99 0.495 0.99 0.495 2 1 C2.59765625 3.5546875 2.59765625 3.5546875 3.0625 6.875 C3.21847656 7.94492187 3.37445312 9.01484375 3.53515625 10.1171875 C4.74708736 20.24037679 5.237264 30.23922466 5.25 40.4375 C5.25167175 41.14922363 5.25334351 41.86094727 5.25506592 42.59423828 C5.25751529 60.17878585 4.11269184 77.85926173 0 95 C-0.33806254 96.5542268 -0.67393009 98.10893236 -1.0078125 99.6640625 C-10.16039918 140.88598463 -29.30528575 180.82123418 -57.203125 212.68359375 C-58.89856687 214.63167134 -60.21200263 216.35728363 -61.5390625 218.59375 C-63.42630007 221.7021413 -65.77477804 223.9638931 -68.375 226.5 C-69.77878906 227.87671875 -69.77878906 227.87671875 -71.2109375 229.28125 C-72.13132812 230.1784375 -73.05171875 231.075625 -74 232 C-76.44710367 234.43222766 -78.87887516 236.87514186 -81.28125 239.3515625 C-82.0134375 240.10179687 -82.745625 240.85203125 -83.5 241.625 C-84.2321875 242.38039063 -84.964375 243.13578125 -85.71875 243.9140625 C-88.04411325 246.04033643 -90.16272161 247.62742052 -93 249 C-93.99 248.67 -94.98 248.34 -96 248 C-95.18660156 247.33097656 -94.37320312 246.66195312 -93.53515625 245.97265625 C-79.85458739 234.56779546 -66.7948216 222.21090439 -56 208 C-55.06164889 206.80173004 -54.12281249 205.60384002 -53.18359375 204.40625 C-34.36412754 180.14559576 -20.960638 153.13750876 -11.1875 124.125 C-10.81431641 123.02043457 -10.44113281 121.91586914 -10.05664062 120.77783203 C-7.85082157 114.0753047 -6.07530031 107.38239983 -4.60668945 100.47998047 C-4 98 -4 98 -3 97 C-2.64053661 95.0131341 -2.3393164 93.01568068 -2.0625 91.015625 C-1.88976562 89.76910156 -1.71703125 88.52257812 -1.5390625 87.23828125 C-1.45043945 86.58166504 -1.36181641 85.92504883 -1.27050781 85.24853516 C-1.00663041 83.29898602 -0.73389706 81.35064203 -0.4609375 79.40234375 C1.32469108 66.35659461 2.18677174 53.47624988 2.18530273 40.31689453 C2.18749074 38.13424185 2.20573924 35.95209542 2.22460938 33.76953125 C2.25655231 25.45524057 1.72474892 17.48156363 0.4309082 9.26513672 C0.01741131 6.13193136 -0.07570607 3.15571626 0 0 Z " fill="#889EAE" transform="translate(559,253)"/>
<path d="M0 0 C0.66 0 1.32 0 2 0 C2.69775521 4.23112606 3.39133706 8.46291032 4.08129883 12.6953125 C4.31587009 14.130715 4.55151967 15.56594177 4.78833008 17.00097656 C6.97528002 30.26138337 8.17901477 42.97112736 8.125 56.4375 C8.12311676 57.14487305 8.12123352 57.85224609 8.11929321 58.58105469 C8.07071163 74.14826341 7.8550106 89.2481372 4.69140625 104.53125 C4.11682858 107.41387694 3.70539868 110.20246894 3.4375 113.125 C3.0220619 116.80459459 2.17883348 119.50730756 1 123 C-0.0174531 126.55210293 -0.9759696 130.11990737 -1.9375 133.6875 C-2.70164784 136.50761593 -3.46579624 139.32773136 -4.23046875 142.14770508 C-4.7535046 144.08635606 -5.27155613 146.02635722 -5.78515625 147.9675293 C-7.65125576 154.96363533 -10.06919744 161.37828649 -13 168 C-13.31211426 168.71833008 -13.62422852 169.43666016 -13.94580078 170.17675781 C-24.39107882 194.20636084 -36.62350458 216.44194243 -53 237 C-53 233.89448334 -52.4606285 232.64738916 -51 230 C-50.34 230 -49.68 230 -49 230 C-48.72220703 229.42113037 -48.44441406 228.84226074 -48.15820312 228.24584961 C-47.04153308 226.080536 -45.81520856 224.09526547 -44.46875 222.06640625 C-43.74751953 220.9690918 -43.74751953 220.9690918 -43.01171875 219.84960938 C-42.00570244 218.32758728 -40.99789495 216.80674757 -39.98828125 215.28710938 C-37.58335786 211.62169665 -35.39987611 208.19129573 -34 204 C-33.34 204 -32.68 204 -32 204 C-31.74992188 203.15824219 -31.49984375 202.31648437 -31.2421875 201.44921875 C-29.8834009 197.67623583 -28.07963463 194.29618153 -26.125 190.8125 C-23.17050765 185.42856662 -20.75922637 180.1244758 -18.796875 174.2890625 C-17.78619394 171.38583161 -16.39765855 168.73454933 -15 166 C-11.50673402 158.19526802 -11.50673402 158.19526802 -10 150 C-9.34 150 -8.68 150 -8 150 C-8.04125 149.154375 -8.0825 148.30875 -8.125 147.4375 C-7.98464972 143.57786731 -7.17219836 140.66311987 -6 137 C-5.34 137 -4.68 137 -4 137 C-4.33 136.01 -4.66 135.02 -5 134 C-4.546875 132.23046875 -4.546875 132.23046875 -3.75 130.1875 C-0.5343704 121.11588439 1.19307889 111.7018731 1.7890625 102.109375 C2 100 2 100 3 98 C3.21110214 95.51661788 3.37572067 93.05038807 3.5 90.5625 C3.7428622 85.94362078 4.05700372 81.35239607 4.5234375 76.75 C5.09338401 70.64002513 5.14747836 64.5703469 5.125 58.4375 C5.12886719 57.37853516 5.13273438 56.31957031 5.13671875 55.22851562 C5.12963356 49.47888426 4.89478926 43.85161004 4.21435547 38.14086914 C4 36 4 36 4 32 C3.71506255 29.93351188 3.3994587 27.87114551 3.0625 25.8125 C2.22820553 20.54821942 1.52467709 15.30298627 1 10 C0.9071875 9.08476562 0.814375 8.16953125 0.71875 7.2265625 C0.47587165 4.81801891 0.23639209 2.40918745 0 0 Z " fill="#93A7B6" transform="translate(574,234)"/>
<path d="M0 0 C-29.62900078 19.5221603 -67.14643718 34.22228055 -103 33 C-103 32.67 -103 32.34 -103 32 C-87.57142857 27.71428571 -87.57142857 27.71428571 -83 30 C-83 29.34 -83 28.68 -83 28 C-82.319375 28.04125 -81.63875 28.0825 -80.9375 28.125 C-77.37086642 27.97322836 -74.40702236 27.05735177 -71 26 C-67.20415659 24.87530566 -63.43657772 23.86655387 -59.5625 23.0625 C-55.83398876 22.2571923 -52.38479263 21.1195767 -48.83984375 19.72265625 C-45.37129874 18.36027657 -41.82232295 17.24295905 -38.25 16.1875 C-34.53541266 14.83024693 -31.12226251 13.10085342 -27.6015625 11.30859375 C-25.10747045 10.05405796 -22.6010422 8.84927583 -20.0625 7.6875 C-19.35222656 7.36136719 -18.64195312 7.03523438 -17.91015625 6.69921875 C-16 6 -16 6 -13 6 C-12.67 5.34 -12.34 4.68 -12 4 C-10.29296875 2.67578125 -10.29296875 2.67578125 -8.1875 1.3125 C-7.50042969 0.85488281 -6.81335938 0.39726562 -6.10546875 -0.07421875 C-3.59474972 -1.17818983 -2.52481387 -0.93616694 0 0 Z " fill="#314250" transform="translate(422,496)"/>
<path d="M0 0 C-1.32 0.33 -2.64 0.66 -4 1 C-4 1.66 -4 2.32 -4 3 C-15.1234163 6.4760676 -26.18368122 9.44567616 -37.6875 11.375 C-38.66525391 11.54225586 -39.64300781 11.70951172 -40.65039062 11.88183594 C-46.11119568 12.74848247 -51.32893139 13.10102572 -56.85473633 13.00341797 C-59.33174825 12.99947144 -61.59194492 13.29954566 -64 13.875 C-65.0828125 14.11863281 -65.0828125 14.11863281 -66.1875 14.3671875 C-68.21880874 14.92913698 -68.21880874 14.92913698 -70 17 C-70 18.32 -70 19.64 -70 21 C-66.47320901 23.35119399 -64.97120515 23.21443452 -60.8125 23.125 C-59.18248047 23.09792969 -59.18248047 23.09792969 -57.51953125 23.0703125 C-56.68808594 23.04710937 -55.85664063 23.02390625 -55 23 C-55 23.66 -55 24.32 -55 25 C-57.43816585 25.0809723 -59.87364384 25.14046972 -62.3125 25.1875 C-63.34793945 25.22520508 -63.34793945 25.22520508 -64.40429688 25.26367188 C-69.49086589 25.33739027 -69.49086589 25.33739027 -71.95703125 23.703125 C-73.73211858 20.80448052 -73.34689279 18.29548148 -73 15 C-71.93432617 12.84326172 -71.93432617 12.84326172 -70 11 C-67.45542549 10.43403152 -65.25029005 10.12214406 -62.67578125 9.9453125 C-61.16745797 9.80737468 -59.6591581 9.66918072 -58.15087891 9.53076172 C-57.36046204 9.46499939 -56.57004517 9.39923706 -55.75567627 9.33148193 C-38.85101096 7.90280566 -22.62100137 5.35792424 -6.515625 -0.203125 C-3.8305622 -1.05367285 -2.59576428 -0.99837088 0 0 Z " fill="#374754" transform="translate(373,505)"/>
<path d="M0 0 C0.66 0.33 1.32 0.66 2 1 C-4.82459754 6.44515761 -11.35673909 11.01089084 -19.30859375 14.7109375 C-21.98464279 15.99264459 -24.45980234 17.47086786 -27 19 C-28.175625 19.495 -29.35125 19.99 -30.5625 20.5 C-33.46654045 21.76721765 -35.59615217 22.98076782 -38 25 C-37.67 26.65 -37.34 28.3 -37 30 C-30.50264233 31.74319352 -26.65069742 29.40649251 -20.9375 26.375 C-17.91083825 24.95826471 -15.30389464 24.39332079 -12 24 C-12 23.34 -12 22.68 -12 22 C-10.73308493 21.32591692 -9.46129251 20.66099503 -8.1875 20 C-7.47980469 19.62875 -6.77210938 19.2575 -6.04296875 18.875 C-4 18 -4 18 -1 18 C-1 17.34 -1 16.68 -1 16 C0.65 15.67 2.3 15.34 4 15 C4 14.34 4 13.68 4 13 C4.99 13 5.98 13 7 13 C7.33 12.01 7.66 11.02 8 10 C11 8 11 8 14 8 C14 7.34 14 6.68 14 6 C14.99 6.33 15.98 6.66 17 7 C4.30317939 17.92432998 -10.8637628 25.13060648 -26 32 C-27.10214844 32.59167969 -27.10214844 32.59167969 -28.2265625 33.1953125 C-31.58216035 34.71789655 -34.35256973 34.34737431 -38 34 C-40.90460477 31.73077752 -40.97856495 30.15004537 -41.5 26.5 C-41 23 -41 23 -38.81689453 20.9543457 C-36.08154031 19.05657221 -33.4511055 17.61935876 -30.4296875 16.23046875 C-29.3675 15.73353516 -28.3053125 15.23660156 -27.2109375 14.72460938 C-25.01076597 13.71083011 -22.81025251 12.69779257 -20.609375 11.68554688 C-14.08915343 8.63361184 -8.08773727 5.29485885 -2.14892578 1.21606445 C-1.08520752 0.61411255 -1.08520752 0.61411255 0 0 Z " fill="#415362" transform="translate(396,442)"/>
<path d="M0 0 C0.99 0.33 1.98 0.66 3 1 C-7.15782492 10.81523386 -17.79559978 19.8081213 -30 27 C-30.66 27.515625 -31.32 28.03125 -32 28.5625 C-34 30 -34 30 -36.25 30.875 C-38.61852287 31.84394117 -40.36135356 32.84627802 -42.47265625 34.24609375 C-47.48123292 37.41313083 -52.78003013 39.78700464 -58.1875 42.1875 C-59.15880859 42.62513672 -60.13011719 43.06277344 -61.13085938 43.51367188 C-63.74865658 44.68889954 -66.3669128 45.85943975 -69 47 C-69.86665283 47.39614502 -70.73330566 47.79229004 -71.6262207 48.20043945 C-74 49 -74 49 -77 48 C-73.50748596 44.50748596 -71.0524817 43.13767205 -66.375 41.375 C-42.6041843 32.12409034 -20.28985239 18.81306939 -1.76391602 1.21166992 C-1.18182373 0.81181885 -0.59973145 0.41196777 0 0 Z " fill="#4C5D6C" transform="translate(446,458)"/>
<path d="M0 0 C0.33 0 0.66 0 1 0 C0.52526661 7.27366409 -0.85741406 13.9448424 -2.875 20.9375 C-3.13152344 21.84951172 -3.38804687 22.76152344 -3.65234375 23.70117188 C-4.16933175 25.53920711 -4.68998672 27.37621498 -5.21435547 29.2121582 C-6.02401249 32.08520776 -6.79415129 34.96722125 -7.5625 37.8515625 C-9.19188696 43.83571168 -11.49199399 49.33353256 -14 55 C-14.31211426 55.71833008 -14.62422852 56.43666016 -14.94580078 57.17675781 C-25.39107882 81.20636084 -37.62350458 103.44194243 -54 124 C-54 120.89448334 -53.4606285 119.64738916 -52 117 C-51.34 117 -50.68 117 -50 117 C-49.58331055 116.13169556 -49.58331055 116.13169556 -49.15820312 115.24584961 C-48.04153308 113.080536 -46.81520856 111.09526547 -45.46875 109.06640625 C-44.98792969 108.33486328 -44.50710938 107.60332031 -44.01171875 106.84960938 C-43.00570244 105.32758728 -41.99789495 103.80674757 -40.98828125 102.28710938 C-38.58335786 98.62169665 -36.39987611 95.19129573 -35 91 C-34.34 91 -33.68 91 -33 91 C-32.74992188 90.15824219 -32.49984375 89.31648438 -32.2421875 88.44921875 C-30.8834009 84.67623583 -29.07963463 81.29618153 -27.125 77.8125 C-24.17050765 72.42856662 -21.75922637 67.1244758 -19.796875 61.2890625 C-18.78619394 58.38583161 -17.39765855 55.73454933 -16 53 C-12.50673402 45.19526802 -12.50673402 45.19526802 -11 37 C-10.34 37 -9.68 37 -9 37 C-9.04125 36.154375 -9.0825 35.30875 -9.125 34.4375 C-8.98464972 30.57786731 -8.17219836 27.66311987 -7 24 C-6.34 24 -5.68 24 -5 24 C-5.495 22.515 -5.495 22.515 -6 21 C-5.546875 19.16015625 -5.546875 19.16015625 -4.75 17.0625 C-2.74905144 11.47459756 -1.37619532 5.76830803 0 0 Z " fill="#7F97A9" transform="translate(575,347)"/>
<path d="M0 0 C0 10.06579739 -13.80431369 23.4818302 -20 31 C-20.52674316 31.52142578 -21.05348633 32.04285156 -21.59619141 32.58007812 C-23.15078017 34.03237809 -23.15078017 34.03237809 -24.3515625 36.34375 C-26.33408221 39.53833153 -28.68525845 41.87658085 -31.375 44.5 C-32.31085938 45.4178125 -33.24671875 46.335625 -34.2109375 47.28125 C-35.13132812 48.1784375 -36.05171875 49.075625 -37 50 C-39.44710367 52.43222766 -41.87887516 54.87514186 -44.28125 57.3515625 C-45.0134375 58.10179687 -45.745625 58.85203125 -46.5 59.625 C-47.2321875 60.38039063 -47.964375 61.13578125 -48.71875 61.9140625 C-51.04411325 64.04033643 -53.16272161 65.62742052 -56 67 C-56.99 66.67 -57.98 66.34 -59 66 C-58.18660156 65.33097656 -57.37320312 64.66195312 -56.53515625 63.97265625 C-42.86307173 52.57486846 -29.76424523 40.22349101 -19 26 C-18.29883057 25.08154297 -18.29883057 25.08154297 -17.58349609 24.14453125 C-11.54125472 16.22354541 -5.61815017 8.22940307 0 0 Z " fill="#667A89" transform="translate(522,435)"/>
<path d="M0 0 C0.66 0.66 1.32 1.32 2 2 C-8.63691534 12.25202696 -21.47241923 19.88890115 -34.1875 27.25 C-35.17951416 27.83539551 -36.17152832 28.42079102 -37.19360352 29.02392578 C-38.13389404 29.55743652 -39.07418457 30.09094727 -40.04296875 30.640625 C-40.87852295 31.12047852 -41.71407715 31.60033203 -42.57495117 32.09472656 C-45.47639778 33.17783983 -47.07044068 32.86603403 -50 32 C-46.12665128 28.75306886 -41.66532254 26.70942441 -37.1875 24.4375 C-23.86272368 17.5430947 -11.86272916 9.14556773 0 0 Z " fill="#4A5B69" transform="translate(462,502)"/>
<path d="M0 0 C0 0.33 0 0.66 0 1 C-1.093125 1.103125 -2.18625 1.20625 -3.3125 1.3125 C-6.91571023 1.60093453 -6.91571023 1.60093453 -8.38612366 3.5196991 C-10.71091074 5.65207091 -12.39363434 5.37428776 -15.50952148 5.37231445 C-16.63756699 5.37854324 -17.76561249 5.38477203 -18.92784119 5.39118958 C-20.75600121 5.37737495 -20.75600121 5.37737495 -22.62109375 5.36328125 C-23.87253677 5.36377975 -25.1239798 5.36427826 -26.41334534 5.36479187 C-29.06241486 5.36244918 -31.71068793 5.35428324 -34.35961914 5.33618164 C-37.75030295 5.31351746 -41.1405409 5.31294646 -44.53127956 5.31969929 C-47.76958439 5.32385059 -51.00781051 5.31186114 -54.24609375 5.30078125 C-56.07121742 5.30214836 -56.07121742 5.30214836 -57.93321228 5.30354309 C-59.06440994 5.29401108 -60.1956076 5.28447906 -61.36108398 5.2746582 C-62.3557518 5.27005081 -63.35041962 5.26544342 -64.37522888 5.26069641 C-67.05437932 4.99459896 -68.70562344 4.36867875 -71 3 C-65.54346374 1.84724247 -60.28195668 1.90526722 -54.73828125 1.97265625 C-52.71159029 1.98530878 -50.68489748 1.99766927 -48.65820312 2.00976562 C-45.48993067 2.03448907 -42.32175622 2.06240199 -39.15356445 2.09594727 C-36.07763095 2.12643533 -33.00181907 2.14401436 -29.92578125 2.16015625 C-28.99518387 2.17361588 -28.06458649 2.1870755 -27.10578918 2.20094299 C-21.38166887 2.22241424 -16.08364888 1.62381055 -10.47990417 0.44407654 C-6.93339052 -0.1909978 -3.59339807 -0.13559993 0 0 Z " fill="#EBEBED" transform="translate(334,585)"/>
<path d="M0 0 C0.99 0.33 1.98 0.66 3 1 C3.33333333 4.33333333 3.66666667 7.66666667 4 11 C4.08233887 11.68779541 4.16467773 12.37559082 4.24951172 13.08422852 C6.86444133 36.13863958 7.79123006 66.31941915 -2 88 C-2.66 87.67 -3.32 87.34 -4 87 C-2.65077115 80.11099621 -1.19564171 73.24967096 0.31640625 66.39453125 C1.68620634 59.59249538 2.14878176 53.11236089 2.1328125 46.19921875 C2.13424759 44.82283989 2.13424759 44.82283989 2.13571167 43.4186554 C2.13638884 41.49158662 2.13456703 39.5645155 2.13037109 37.63745117 C2.12498539 34.67947334 2.1303475 31.72164522 2.13671875 28.76367188 C2.13605849 26.8880205 2.13477841 25.01236921 2.1328125 23.13671875 C2.13483673 22.25030197 2.13686096 21.36388519 2.13894653 20.4506073 C2.25835232 16.08864233 2.25835232 16.08864233 1 12 C0.77141886 9.9625237 0.58975722 7.91959697 0.4375 5.875 C0.35371094 4.77929688 0.26992188 3.68359375 0.18359375 2.5546875 C0.12300781 1.71164062 0.06242187 0.86859375 0 0 Z " fill="#8098A8" transform="translate(471,259)"/>
<path d="M0 0 C3.6092132 3.51219134 6.91239125 7.18290144 10.125 11.0625 C21.40163384 24.52059116 33.24577128 37.03429984 47 48 C49.00267438 49.62170291 51.00274314 51.24662963 53 52.875 C53.886875 53.59429687 54.77375 54.31359375 55.6875 55.0546875 C57.56384007 56.6330952 59.30766759 58.22973123 61 60 C56.10831396 59.54495944 53.56681378 58.37401303 50 55 C49.2265625 53.948125 49.2265625 53.948125 48.4375 52.875 C46.82281267 50.76888609 45.42647879 50.00406019 43 49 C43 48.34 43 47.68 43 47 C42.34 47 41.68 47 41 47 C33.33333333 39.33333333 25.66666667 31.66666667 18 24 C17.4846167 23.49887695 16.9692334 22.99775391 16.43823242 22.48144531 C14.95542572 20.95408645 13.66529783 19.36912178 12.37109375 17.6796875 C11.89349609 17.06222656 11.41589844 16.44476563 10.92382812 15.80859375 C9.92771647 14.51273234 8.93293757 13.21584543 7.93945312 11.91796875 C5.41573924 8.45528343 5.41573924 8.45528343 2 6 C1.27306096 4.02111039 0.60183749 2.02045442 0 0 Z " fill="#1E252F" transform="translate(83,449)"/>
<path d="M0 0 C0.66 0 1.32 0 2 0 C3.06193204 7.82431531 3.19294255 15.54728448 3.1875 23.4375 C3.18722809 24.10196136 3.18695618 24.76642273 3.18667603 25.45101929 C3.16668884 36.08820142 2.69447355 46.49376851 1 57 C0.87689453 57.76715332 0.75378906 58.53430664 0.62695312 59.32470703 C-1.54678106 72.60232966 -1.54678106 72.60232966 -3 78 C-3.66 78 -4.32 78 -5 78 C-4.40476943 71.21437151 -3.16860743 64.69390809 -1.71875 58.0390625 C-0.08105907 49.62135115 0.14758902 41.06982414 0.09765625 32.51953125 C0.0962413 31.58066574 0.09482635 30.64180023 0.09336853 29.67448425 C0.08783898 26.72045496 0.07530045 23.76650579 0.0625 20.8125 C0.05747587 18.79101673 0.05291458 16.76953226 0.04882812 14.74804688 C0.03789277 9.8320011 0.02067824 4.91601406 0 0 Z " fill="#8FA3B1" transform="translate(517,270)"/>
<path d="M0 0 C0.33 0 0.66 0 1 0 C1.01030746 0.63591568 1.02061493 1.27183136 1.03123474 1.92701721 C1.13964781 8.56220052 1.25421614 15.19725755 1.37231445 21.83227539 C1.41555201 24.30653229 1.45723472 26.78081688 1.49731445 29.25512695 C1.55528841 32.81730483 1.61890423 36.37934477 1.68359375 39.94140625 C1.70866249 41.59336754 1.70866249 41.59336754 1.73423767 43.27870178 C1.83657649 48.61776018 2.1285629 53.73288021 3 59 C3.06252492 60.97828849 3.08693365 62.95837451 3.0625 64.9375 C3.05347656 65.89527344 3.04445313 66.85304688 3.03515625 67.83984375 C3.02355469 68.55269531 3.01195312 69.26554687 3 70 C2.01 69.34 1.02 68.68 0 68 C-0.08798769 65.66832622 -0.07905064 63.33199388 0 61 C-0.185625 60.13375 -0.37125 59.2675 -0.5625 58.375 C-1.06631547 55.64000173 -0.68736906 53.67310189 0 51 C-0.66 51 -1.32 51 -2 51 C-1.88104059 45.18322902 -1.75675042 39.36660438 -1.62768555 33.55004883 C-1.58458077 31.57449375 -1.54289038 29.59890724 -1.50268555 27.62329102 C-1.44438535 24.77090009 -1.38086855 21.91866379 -1.31640625 19.06640625 C-1.29969376 18.19415909 -1.28298126 17.32191193 -1.26576233 16.42323303 C-1.13450015 10.89381774 -0.68104924 5.48959615 0 0 Z " fill="#272E36" transform="translate(33,267)"/>
<path d="M0 0 C-2.37328509 2.74801432 -4.6481365 3.71082173 -8 5 C-8.66 5.66 -9.32 6.32 -10 7 C-10.99 7 -11.98 7 -13 7 C-13 7.66 -13 8.32 -13 9 C-14.7015625 9.4021875 -14.7015625 9.4021875 -16.4375 9.8125 C-17.613125 10.204375 -18.78875 10.59625 -20 11 C-20.33 11.99 -20.66 12.98 -21 14 C-22.51879883 15.31860352 -22.51879883 15.31860352 -24.45703125 16.62890625 C-25.15763672 17.10650391 -25.85824219 17.58410156 -26.58007812 18.07617188 C-27.31677734 18.56666016 -28.05347656 19.05714844 -28.8125 19.5625 C-29.53759766 20.05685547 -30.26269531 20.55121094 -31.00976562 21.06054688 C-36.45442916 24.74179697 -36.45442916 24.74179697 -39.1784668 26.03100586 C-41.17523576 26.86745888 -41.17523576 26.86745888 -42 29 C-46.5 32 -46.5 32 -49 32 C-49 31.34 -49 30.68 -49 30 C-47.72509766 28.77001953 -47.72509766 28.77001953 -45.9140625 27.3828125 C-45.23939941 26.86404541 -44.56473633 26.34527832 -43.86962891 25.81079102 C-43.12890137 25.25447998 -42.38817383 24.69816895 -41.625 24.125 C-40.86493652 23.54999756 -40.10487305 22.97499512 -39.32177734 22.38256836 C-6.52008122 -2.17336041 -6.52008122 -2.17336041 0 0 Z " fill="#2B333B" transform="translate(158,39)"/>
<path d="M0 0 C-1.4562545 0.67119549 -2.91507867 1.33681807 -4.375 2 C-5.59316406 2.556875 -5.59316406 2.556875 -6.8359375 3.125 C-9 4 -9 4 -11 4 C-10.5875 4.97453125 -10.175 5.9490625 -9.75 6.953125 C-5.75070295 16.67373629 -2.52035079 26.52033143 0.375 36.625 C0.72046875 37.82157227 1.0659375 39.01814453 1.421875 40.25097656 C3.0868308 46.17655427 4.46968594 51.86350874 5 58 C4.34 58 3.68 58 3 58 C2.82460693 57.32235596 2.64921387 56.64471191 2.46850586 55.9465332 C-1.09483952 42.25529914 -4.89849594 28.73695715 -9.51953125 15.36328125 C-10.81657608 11.60669158 -11.94831837 7.83222527 -13 4 C-9.0516245 0.65906688 -5.11813443 -1.70604481 0 0 Z " fill="#8EA4B4" transform="translate(570,175)"/>
<path d="M0 0 C1.15500628 3.46501884 0.86446668 4.03497711 -0.44921875 7.296875 C-0.79702393 8.1623999 -1.1448291 9.0279248 -1.50317383 9.91967773 C-1.89400146 10.85368408 -2.2848291 11.78769043 -2.6875 12.75 C-3.08670654 13.71558838 -3.48591309 14.68117676 -3.8972168 15.67602539 C-9.63807502 29.24403507 -16.62118314 42.25795758 -24 55 C-24.66 54.34 -25.32 53.68 -26 53 C-25.52542358 52.16529175 -25.52542358 52.16529175 -25.04125977 51.3137207 C-17.86316986 38.61542131 -11.50450377 25.84985551 -5.9765625 12.35302734 C-1.45264278 1.45264278 -1.45264278 1.45264278 0 0 Z " fill="#7A90A0" transform="translate(548,381)"/>
<path d="M0 0 C5.71061772 5.71061772 4.24236136 19.72958363 4.27575684 27.54211426 C4.2742074 29.13713275 4.2691882 30.73215155 4.26074219 32.32714844 C4.24982863 34.78865138 4.26080454 37.24945387 4.2734375 39.7109375 C4.27211895 41.28125161 4.2695629 42.85156528 4.265625 44.421875 C4.26967346 45.15508972 4.27372192 45.88830444 4.27789307 46.64373779 C4.2300445 51.7699555 4.2300445 51.7699555 2 54 C1.02354427 46.28534583 0.91626815 38.70528176 1 30.9375 C1.06227072 20.58003952 0.81547303 10.32447101 0 0 Z " fill="#8FA4B2" transform="translate(530,259)"/>
<path d="M0 0 C0 0.33 0 0.66 0 1 C-0.57443848 1.08040527 -1.14887695 1.16081055 -1.74072266 1.24365234 C-4.3696701 1.61497859 -6.997305 1.99491616 -9.625 2.375 C-10.52863281 2.50132812 -11.43226563 2.62765625 -12.36328125 2.7578125 C-17.10550344 3.45010771 -21.49709181 4.27961979 -26 6 C-26.33 7.65 -26.66 9.3 -27 11 C-23.47320901 13.35119399 -21.97120515 13.21443452 -17.8125 13.125 C-16.18248047 13.09792969 -16.18248047 13.09792969 -14.51953125 13.0703125 C-13.68808594 13.04710937 -12.85664063 13.02390625 -12 13 C-12 13.66 -12 14.32 -12 15 C-14.43816585 15.0809723 -16.87364384 15.14046972 -19.3125 15.1875 C-20.34793945 15.22520508 -20.34793945 15.22520508 -21.40429688 15.26367188 C-26.49086589 15.33739027 -26.49086589 15.33739027 -28.95703125 13.703125 C-30.73211858 10.80448052 -30.34689279 8.29548148 -30 5 C-28.60705707 2.60534194 -27.7939597 1.25696621 -25.1171875 0.390625 C-24.37726563 0.34421875 -23.63734375 0.2978125 -22.875 0.25 C-21.575625 0.16685547 -21.575625 0.16685547 -20.25 0.08203125 C-13.49935782 -0.08835755 -6.7519542 -0.07049604 0 0 Z " fill="#1D2734" transform="translate(330,515)"/>
<path d="M0 0 C1.22332257 3.6699677 0.69329021 4.2931854 -0.921875 7.69140625 C-1.36474854 8.62734619 -1.80762207 9.56328613 -2.26391602 10.52758789 C-2.75432373 11.52910889 -3.24473145 12.53062988 -3.75 13.5625 C-4.25007568 14.5930249 -4.75015137 15.6235498 -5.26538086 16.68530273 C-11.35126913 29.01625599 -18.45625993 40.58095495 -26.375 51.8125 C-26.7676001 52.36945557 -27.1602002 52.92641113 -27.56469727 53.50024414 C-30.11461849 57.01908111 -32.87099514 60.00920206 -36 63 C-34.125 58.25 -34.125 58.25 -33 56 C-32.34 56 -31.68 56 -31 56 C-30.72220703 55.42113037 -30.44441406 54.84226074 -30.15820312 54.24584961 C-29.04153308 52.080536 -27.81520856 50.09526547 -26.46875 48.06640625 C-25.98792969 47.33486328 -25.50710938 46.60332031 -25.01171875 45.84960938 C-24.00570244 44.32758728 -22.99789495 42.80674757 -21.98828125 41.28710938 C-19.58335786 37.62169665 -17.39987611 34.19129573 -16 30 C-15.34 30 -14.68 30 -14 30 C-13.75121094 29.16339844 -13.50242187 28.32679688 -13.24609375 27.46484375 C-11.85189298 23.5881789 -10.05487271 20.15608234 -8.0625 16.5625 C-5.43029372 11.7913209 -3.08998802 7.03468757 -1 2 C-0.67 1.34 -0.34 0.68 0 0 Z " fill="#677C8C" transform="translate(556,408)"/>
<path d="M0 0 C0.33 0.66 0.66 1.32 1 2 C-0.1796875 4.2421875 -0.1796875 4.2421875 -1.875 6.875 C-3.82653296 9.91576066 -5.35131727 12.42392857 -6 16 C-6.66 16 -7.32 16 -8 16 C-8.061875 16.66 -8.12375 17.32 -8.1875 18 C-9.30378495 22.1216675 -11.33761566 25.65750502 -14 29 C-14.66 29 -15.32 29 -16 29 C-16.12375 29.680625 -16.2475 30.36125 -16.375 31.0625 C-17.09100877 34.4277412 -18.02945125 37.70013425 -19 41 C-19.99 40.34 -20.98 39.68 -22 39 C-21.41360221 34.83027083 -20.00876876 31.94600047 -17.83203125 28.359375 C-17.18556641 27.28816406 -16.53910156 26.21695313 -15.87304688 25.11328125 C-15.19306641 24.00339844 -14.51308594 22.89351562 -13.8125 21.75 C-13.15185547 20.65558594 -12.49121094 19.56117187 -11.81054688 18.43359375 C-8.02082885 12.18598359 -4.11954839 6.03541459 0 0 Z " fill="#293139" transform="translate(450,101)"/>
<path d="M0 0 C3.1835916 3.031992 5.59678158 5.79034475 7 10 C7.66 10.33 8.32 10.66 9 11 C9.89453125 12.671875 9.89453125 12.671875 10.8125 14.75 C12.6329064 18.59002708 14.94788275 21.03266378 18 24 C18 24.99 18 25.98 18 27 C18.66 27.33 19.32 27.66 20 28 C21.33333333 30 22.66666667 32 24 34 C24.66 34.33 25.32 34.66 26 35 C26 35.99 26 36.98 26 38 C26.66 38 27.32 38 28 38 C31.03877834 40.64667791 33.1623645 43.41661078 35 47 C35 47.99 35 48.98 35 50 C20.99060967 36.42127809 9.12659805 19.17947869 0 2 C0 1.34 0 0.68 0 0 Z " fill="#191F29" transform="translate(43,440)"/>
<path d="M0 0 C0.66 0.33 1.32 0.66 2 1 C-4.82459754 6.44515761 -11.35673909 11.01089084 -19.30859375 14.7109375 C-22.02459985 15.95535607 -22.02459985 15.95535607 -24.546875 17.55859375 C-26.94989153 18.97055729 -29.16027169 19.85620456 -31.8125 20.6875 C-32.60269531 20.93886719 -33.39289063 21.19023437 -34.20703125 21.44921875 C-34.79871094 21.63097656 -35.39039063 21.81273437 -36 22 C-36.66 21.34 -37.32 20.68 -38 20 C-37.23969482 19.64284912 -36.47938965 19.28569824 -35.69604492 18.91772461 C-32.81740978 17.56113146 -29.94205196 16.19786324 -27.06860352 14.83032227 C-25.83545963 14.24503905 -24.60112135 13.66226425 -23.36547852 13.08227539 C-15.90662989 9.57883083 -8.89724649 5.86683082 -2.1027832 1.18969727 C-1.40886475 0.79709717 -0.71494629 0.40449707 0 0 Z M-38 22 C-37.34 22.33 -36.68 22.66 -36 23 C-36.99 23 -37.98 23 -39 23 C-38.67 22.67 -38.34 22.34 -38 22 Z " fill="#4E616F" transform="translate(396,442)"/>
<path d="M0 0 C4.60408143 -0.02506619 9.20812154 -0.04302973 13.81225586 -0.05493164 C15.37248427 -0.05990307 16.93270817 -0.06668257 18.49291992 -0.07543945 C28.05602403 -0.12769685 37.47289338 0.06963079 47 1 C47 1.33 47 1.66 47 2 C45.78006348 2.02505615 44.56012695 2.0501123 43.30322266 2.07592773 C38.73705194 2.17075891 34.17100683 2.27078849 29.60498047 2.37231445 C27.63626055 2.41537919 25.66751009 2.45707159 23.69873047 2.49731445 C20.85374784 2.55571374 18.00891503 2.61919972 15.1640625 2.68359375 C13.86343369 2.70866249 13.86343369 2.70866249 12.53652954 2.73423767 C7.36202463 2.85708572 2.2627597 3.21318385 -2.88220215 3.78283691 C-6.60058103 4.16412667 -10.26705653 4.06020877 -14 4 C-14 3.67 -14 3.34 -14 3 C-9.23692563 2.04738513 -4.8333472 1.91666643 0 2 C0 1.34 0 0.68 0 0 Z " fill="#0E151F" transform="translate(269,31)"/>
<path d="M0 0 C2.64 0.33 5.28 0.66 8 1 C8 1.66 8 2.32 8 3 C9.65 3 11.3 3 13 3 C13 3.66 13 4.32 13 5 C14.65 5 16.3 5 18 5 C18 5.66 18 6.32 18 7 C20.31 7.33 22.62 7.66 25 8 C25 8.66 25 9.32 25 10 C27.97 10.495 27.97 10.495 31 11 C31 11.66 31 12.32 31 13 C31.99 13 32.98 13 34 13 C34 13.66 34 14.32 34 15 C34.969375 15.28875 35.93875 15.5775 36.9375 15.875 C40 17 40 17 41 19 C35.22434903 17.27405422 29.88990262 14.72119263 24.4375 12.1875 C16.38806935 8.48212187 8.34583661 4.99190369 0 2 C0 1.34 0 0.68 0 0 Z " fill="#252D35" transform="translate(381,47)"/>
<path d="M0 0 C0.66 0.33 1.32 0.66 2 1 C1.15574463 1.51216064 1.15574463 1.51216064 0.29443359 2.03466797 C-14.83510526 11.23818814 -29.32300499 20.71805481 -43 32 C-43.66 31.67 -44.32 31.34 -45 31 C-42.95203993 27.9280599 -41.31709697 26.54797859 -38 25 C-37.67 24.34 -37.34 23.68 -37 23 C-36.01 22.67 -35.02 22.34 -34 22 C-33.67 21.34 -33.34 20.68 -33 20 C-31.31170973 19.00688808 -29.62013589 18.01856904 -27.90625 17.0703125 C-24.2844119 15.03673947 -20.91538974 12.97444714 -18.0625 9.9375 C-15.87019836 7.87806513 -13.79259228 6.94223272 -11.0078125 5.86328125 C-7.81891269 4.49217841 -4.89224379 2.67211849 -1.91796875 0.890625 C-1.28503906 0.59671875 -0.65210938 0.3028125 0 0 Z " fill="#1C222B" transform="translate(170,63)"/>
<path d="M0 0 C0.33 0 0.66 0 1 0 C1.05534912 1.26706787 1.11069824 2.53413574 1.16772461 3.83959961 C1.3735604 8.52308882 1.58560297 13.20627966 1.79956055 17.8894043 C1.8914357 19.91960125 1.98160817 21.94987599 2.07006836 23.98022461 C2.19722252 26.89198391 2.3304191 29.8034122 2.46484375 32.71484375 C2.50343002 33.6283812 2.5420163 34.54191864 2.58177185 35.48313904 C2.37940755 39.57109414 2.37940755 39.57109414 4 43 C4.07319621 45.69654854 4.09242537 48.36691458 4.0625 51.0625 C4.05798828 51.82111328 4.05347656 52.57972656 4.04882812 53.36132812 C4.0370068 55.24091871 4.01907078 57.12046899 4 59 C-2.73253831 48.90119254 -0.23710884 30.71008518 -0.125 19 C-0.11493715 17.14583824 -0.10581721 15.29167111 -0.09765625 13.4375 C-0.07593439 8.95819727 -0.0415922 4.47916047 0 0 Z " fill="#141A22" transform="translate(4,280)"/>
<path d="M0 0 C0.66 0.33 1.32 0.66 2 1 C0.38405168 3.04119788 -1.2856382 5.04072937 -3 7 C-3.66 7 -4.32 7 -5 7 C-5 7.66 -5 8.32 -5 9 C-6.65234375 10.41015625 -6.65234375 10.41015625 -8.9375 12.0625 C-15.31999298 16.8971128 -21.24553894 22.25500139 -25.8125 28.875 C-27.73378093 31.61968705 -29.20118286 33.2377818 -32 35 C-32.66 34.67 -33.32 34.34 -34 34 C-27.02774526 26.26216434 -19.85643675 18.74929579 -12.5 11.375 C-11.72285645 10.59334473 -10.94571289 9.81168945 -10.14501953 9.00634766 C-9.40622559 8.2694873 -8.66743164 7.53262695 -7.90625 6.7734375 C-7.24947266 6.11778809 -6.59269531 5.46213867 -5.91601562 4.78662109 C-4.03459878 3.03226221 -2.08620883 1.50200074 0 0 Z " fill="#121720" transform="translate(106,72)"/>
<path d="M0 0 C0.66 0 1.32 0 2 0 C2.31875533 7.84923027 1.48468943 14.86838187 -0.3125 22.5 C-0.52583984 23.45519531 -0.73917969 24.41039062 -0.95898438 25.39453125 C-2.45218863 31.98245929 -4.17513761 38.49679635 -6 45 C-6.66 44.34 -7.32 43.68 -8 43 C-7.5083017 40.31502931 -6.92198837 37.80600933 -6.1875 35.1875 C-5.80504879 33.76457545 -5.42351696 32.34140342 -5.04296875 30.91796875 C-4.86789795 30.28656982 -4.69282715 29.6551709 -4.51245117 29.00463867 C-3.47356598 24.94066236 -2.80486699 20.8535763 -2.24609375 16.69921875 C-2.04790039 15.23452148 -2.04790039 15.23452148 -1.84570312 13.74023438 C-1.71099609 12.73283203 -1.57628906 11.72542969 -1.4375 10.6875 C-1.29892578 9.66076172 -1.16035156 8.63402344 -1.01757812 7.57617188 C-0.67696928 5.05096838 -0.33782417 2.52557728 0 0 Z " fill="#8CA1B1" transform="translate(531,315)"/>
<path d="M0 0 C0.66 0.33 1.32 0.66 2 1 C2 1.66 2 2.32 2 3 C0.62988281 4.29345703 0.62988281 4.29345703 -1.296875 5.7578125 C-2.00336182 6.29768799 -2.70984863 6.83756348 -3.43774414 7.39379883 C-4.20078857 7.96509521 -4.96383301 8.5363916 -5.75 9.125 C-6.51755615 9.70596436 -7.2851123 10.28692871 -8.07592773 10.88549805 C-14.22780013 15.50597554 -20.51184507 19.86208231 -27 24 C-27.99 23.34 -28.98 22.68 -30 22 C-27 20 -27 20 -24 20 C-23.67 19.01 -23.34 18.02 -23 17 C-20.07920195 14.92469613 -18.62453269 14 -15 14 C-15 13.34 -15 12.68 -15 12 C-14.01 12 -13.02 12 -12 12 C-11.731875 11.360625 -11.46375 10.72125 -11.1875 10.0625 C-10 8 -10 8 -7 7 C-6.67 6.34 -6.34 5.68 -6 5 C-5.360625 4.690625 -4.72125 4.38125 -4.0625 4.0625 C-1.68028507 3.04654078 -1.68028507 3.04654078 0 0 Z " fill="#4F6170" transform="translate(450,472)"/>
<path d="M0 0 C3.34903994 0.64402778 5.72856246 1.90750557 8.59765625 3.73046875 C9.47719971 4.28387939 10.35674316 4.83729004 11.26293945 5.4074707 C12.18679443 5.99488037 13.11064941 6.58229004 14.0625 7.1875 C21.25856413 11.70917191 28.43344442 16.11926072 36 20 C33 21 33 21 31.08642578 20.22729492 C30.3798584 19.81584229 29.67329102 19.40438965 28.9453125 18.98046875 C28.16542969 18.53509766 27.38554687 18.08972656 26.58203125 17.63085938 C25.77121094 17.15455078 24.96039063 16.67824219 24.125 16.1875 C17.28195014 12.14372725 17.28195014 12.14372725 10 9 C10 8.34 10 7.68 10 7 C9.01 7 8.02 7 7 7 C7 6.34 7 5.68 7 5 C6.01 5 5.02 5 4 5 C1.8125 2.5 1.8125 2.5 0 0 Z " fill="#1D232D" transform="translate(144,510)"/>
<path d="M0 0 C3.65729743 2.04834503 6.58220903 4.31262224 9.625 7.1875 C14.77625998 11.91983221 20.26870091 16.00116585 26 20 C23.63234732 20.84819206 22.50796525 21.23923525 20.18359375 20.14453125 C16.90595703 17.64414172 14.43125724 15.35745048 12 12 C9.91665365 10.7483533 9.91665365 10.7483533 8 10 C8 9.34 8 8.68 8 8 C7.34 8 6.68 8 6 8 C5.34 7.34 4.68 6.68 4 6 C3.29875 5.525625 2.5975 5.05125 1.875 4.5625 C1.25625 4.046875 0.6375 3.53125 0 3 C0 2.01 0 1.02 0 0 Z " fill="#232A34" transform="translate(118,488)"/>
<path d="M0 0 C0.99 0.33 1.98 0.66 3 1 C2.01 1.495 2.01 1.495 1 2 C1.33 4.31 1.66 6.62 2 9 C7.51377833 10.47930638 10.05949678 9.37524193 15 7 C15.66 7 16.32 7 17 7 C17 7.66 17 8.32 17 9 C11.50916791 12.27113401 7.42962391 13.87181341 1 13 C-1 11.4375 -1 11.4375 -2 9 C-2.3125 5.375 -2.3125 5.375 -2 2 C-1.34 1.34 -0.68 0.68 0 0 Z " fill="#3D4D5B" transform="translate(357,463)"/>
<path d="M0 0 C0 0.66 0 1.32 0 2 C-2.88243423 3.71120766 -5.78273865 5.38951872 -8.6875 7.0625 C-9.50412109 7.54783203 -10.32074219 8.03316406 -11.16210938 8.53320312 C-11.95810547 8.98759766 -12.75410156 9.44199219 -13.57421875 9.91015625 C-14.30213623 10.33433838 -15.03005371 10.75852051 -15.7800293 11.19555664 C-18.54837109 12.1987114 -20.20769689 11.79197529 -23 11 C-19.42221604 8.10674103 -15.53772791 5.98032867 -11.5 3.8125 C-10.83613281 3.44447266 -10.17226563 3.07644531 -9.48828125 2.69726562 C-5.98841726 0.81460426 -4.05400821 0 0 0 Z " fill="#4A5B68" transform="translate(435,523)"/>
<path d="M0 0 C0.99 0.33 1.98 0.66 3 1 C4.68636313 16.17726819 5.15720716 30.77827505 4 46 C3.67 46 3.34 46 3 46 C2.97494385 45.04109863 2.9498877 44.08219727 2.92407227 43.09423828 C2.8300138 39.54201523 2.72978942 35.98998844 2.62768555 32.43798828 C2.58433074 30.89962347 2.54265605 29.36121037 2.50268555 27.82275391 C2.44499602 25.6134586 2.38129821 23.40440652 2.31640625 21.1953125 C2.29133751 20.16085495 2.29133751 20.16085495 2.26576233 19.10549927 C2.19193005 15.42885736 2.19193005 15.42885736 1 12 C0.77141886 9.9625237 0.58975722 7.91959697 0.4375 5.875 C0.35371094 4.77929688 0.26992188 3.68359375 0.18359375 2.5546875 C0.12300781 1.71164062 0.06242187 0.86859375 0 0 Z " fill="#96AAB8" transform="translate(471,259)"/>
<path d="M0 0 C0 0.33 0 0.66 0 1 C-4.19920237 1.04953687 -8.39824869 1.08578411 -12.59765625 1.10986328 C-14.02542078 1.11990427 -15.45316483 1.13353981 -16.88085938 1.15087891 C-18.93624941 1.17521152 -20.99136692 1.18650202 -23.046875 1.1953125 C-24.90070801 1.21102295 -24.90070801 1.21102295 -26.79199219 1.22705078 C-29.81659371 1.01298081 -31.46985651 0.59653159 -34 -1 C-22.71433734 -3.37592898 -11.29576324 -1.37813233 0 0 Z " fill="#F2F3F3" transform="translate(297,589)"/>
<path d="M0 0 C0.99 0.33 1.98 0.66 3 1 C0.98380977 2.90097936 -1.0376812 4.79574706 -3.0625 6.6875 C-3.90458008 7.48317383 -3.90458008 7.48317383 -4.76367188 8.29492188 C-8.63424437 11.90008368 -12.63865907 15.00539776 -17 18 C-17.99 17.34 -18.98 16.68 -20 16 C-19.2265625 15.43152344 -18.453125 14.86304688 -17.65625 14.27734375 C-16.6146875 13.50519531 -15.573125 12.73304688 -14.5 11.9375 C-13.95480713 11.53354004 -13.40961426 11.12958008 -12.84790039 10.71337891 C-8.87707971 7.73921374 -5.189269 4.57026033 -1.62109375 1.1171875 C-1.08613281 0.74851562 -0.55117188 0.37984375 0 0 Z " fill="#5B6D7B" transform="translate(446,458)"/>
<path d="M0 0 C-1.33333333 0.66666667 -2.66666667 1.33333333 -4 2 C-4.56847656 2.33 -5.13695312 2.66 -5.72265625 3 C-13.29007547 6.32291479 -22.84164329 6.28132265 -31 6 C-31 5.67 -31 5.34 -31 5 C-28.36 4.67 -25.72 4.34 -23 4 C-23 3.34 -23 2.68 -23 2 C-20.47980028 1.66114962 -17.95901484 1.32879665 -15.4375 1 C-14.38079102 0.85691406 -14.38079102 0.85691406 -13.30273438 0.7109375 C-8.82632145 0.13333583 -4.51338762 -0.09489383 0 0 Z " fill="#303D4A" transform="translate(346,512)"/>
<path d="M0 0 C4.95 0.99 4.95 0.99 10 2 C10 2.66 10 3.32 10 4 C10.64066406 4.18175781 11.28132812 4.36351562 11.94140625 4.55078125 C17.14395897 6.06270045 22.07144327 7.75000671 27 10 C27 10.33 27 10.66 27 11 C20.82818656 10.48218345 15.8100978 9.0386731 10.125 6.625 C9.36703125 6.32078125 8.6090625 6.0165625 7.828125 5.703125 C2.25513136 3.38269704 2.25513136 3.38269704 0 0 Z " fill="#242C35" transform="translate(177,561)"/>
<path d="M0 0 C2.31 0.66 4.62 1.32 7 2 C7 2.66 7 3.32 7 4 C8.28777344 4.39832031 8.28777344 4.39832031 9.6015625 4.8046875 C13.02910808 6.01023801 16.14173798 7.47244386 19.375 9.125 C20.43460938 9.66382813 21.49421875 10.20265625 22.5859375 10.7578125 C23.38257813 11.16773438 24.17921875 11.57765625 25 12 C24.67 12.66 24.34 13.32 24 14 C18.71460187 12.44051251 14.03870094 10.12251141 9.1875 7.5625 C8.41212891 7.16740234 7.63675781 6.77230469 6.83789062 6.36523438 C6.10119141 5.97787109 5.36449219 5.59050781 4.60546875 5.19140625 C3.60229614 4.66848999 3.60229614 4.66848999 2.57885742 4.13500977 C1 3 1 3 0 0 Z " fill="#2F3740" transform="translate(150,547)"/>
<path d="M0 0 C9.5712122 0.04395505 18.86414609 0.98078464 28.33984375 2.265625 C28.33984375 2.595625 28.33984375 2.925625 28.33984375 3.265625 C13.76407559 3.4384602 13.76407559 3.4384602 8.27734375 2.703125 C4.63197696 2.29808425 1.89035825 2.4462755 -1.66015625 3.265625 C-2.32015625 5.245625 -2.98015625 7.225625 -3.66015625 9.265625 C-3.99015625 9.265625 -4.32015625 9.265625 -4.66015625 9.265625 C-4.78515625 5.890625 -4.78515625 5.890625 -4.66015625 2.265625 C-2.66015625 0.265625 -2.66015625 0.265625 0 0 Z " fill="#7893A6" transform="translate(533.66015625,160.734375)"/>
<path d="M0 0 C0 0.99 0 1.98 0 3 C-1.828125 4.53515625 -1.828125 4.53515625 -4.25 6.0625 C-5.03890625 6.56910156 -5.8278125 7.07570313 -6.640625 7.59765625 C-9 9 -9 9 -11.234375 10.05859375 C-13.17971396 10.8770607 -13.17971396 10.8770607 -14 13 C-18.5 16 -18.5 16 -21 16 C-21 15.34 -21 14.68 -21 14 C-19.47119141 12.59545898 -19.47119141 12.59545898 -17.3515625 10.99609375 C-16.59359375 10.42052734 -15.835625 9.84496094 -15.0546875 9.25195312 C-13.85199219 8.35379883 -13.85199219 8.35379883 -12.625 7.4375 C-11.8309375 6.83486328 -11.036875 6.23222656 -10.21875 5.61132812 C-2.78736146 0 -2.78736146 0 0 0 Z " fill="#232C35" transform="translate(130,55)"/>
<path d="M0 0 C2.31 0.33 4.62 0.66 7 1 C-0.56026921 6.04017947 -11.22396675 5.28008617 -20 5 C-20 4.67 -20 4.34 -20 4 C-4.57142857 -0.28571429 -4.57142857 -0.28571429 0 2 C0 1.34 0 0.68 0 0 Z " fill="#23323E" transform="translate(339,524)"/>
<path d="M0 0 C-2.91577627 2.91577627 -6.51108535 3.56105977 -10.375 4.6875 C-11.14328125 4.92533203 -11.9115625 5.16316406 -12.703125 5.40820312 C-13.44820313 5.62798828 -14.19328125 5.84777344 -14.9609375 6.07421875 C-15.97873291 6.37718872 -15.97873291 6.37718872 -17.01708984 6.6862793 C-19.29129433 7.04608633 -20.82377339 6.69470212 -23 6 C-22.34 5.01 -21.68 4.02 -21 3 C-18.67750658 2.59802999 -16.34114367 2.27313343 -14 2 C-13.030625 1.649375 -12.06125 1.29875 -11.0625 0.9375 C-7.19185962 -0.24738991 -4.03610812 -0.13917614 0 0 Z " fill="#313F4C" transform="translate(366,520)"/>
<path d="M0 0 C0.33 0 0.66 0 1 0 C1.28502806 4.01955846 0.67921145 6.11368035 -1.51953125 9.46875 C-2.31133789 10.69658203 -2.31133789 10.69658203 -3.11914062 11.94921875 C-3.67794922 12.79097656 -4.23675781 13.63273437 -4.8125 14.5 C-5.90261709 16.17690567 -6.99246868 17.85398398 -8.08203125 19.53125 C-8.85087646 20.69720703 -8.85087646 20.69720703 -9.63525391 21.88671875 C-10.73355868 23.5874211 -11.75991044 25.33447686 -12.76171875 27.09375 C-13.17035156 27.7228125 -13.57898438 28.351875 -14 29 C-14.66 29 -15.32 29 -16 29 C-14.7216933 25.57208793 -13.24193227 22.59679093 -11.25 19.53125 C-10.46109375 18.30341797 -10.46109375 18.30341797 -9.65625 17.05078125 C-8.55208333 15.35026042 -7.44791667 13.64973958 -6.34375 11.94921875 C-5.8178125 11.13066406 -5.291875 10.31210938 -4.75 9.46875 C-4.27046875 8.73076172 -3.7909375 7.99277344 -3.296875 7.23242188 C-1.93545604 4.88889496 -0.94588728 2.5364949 0 0 Z " fill="#1B222A" transform="translate(485,95)"/>
<path d="M0 0 C0.33 0.66 0.66 1.32 1 2 C0.34 1.67 -0.32 1.34 -1 1 C-0.67 0.67 -0.34 0.34 0 0 Z M-4 2 C-3.01 2.33 -2.02 2.66 -1 3 C-2.72294915 4.77726278 -4.45287096 6.54669663 -6.1875 8.3125 C-6.67025391 8.81201172 -7.15300781 9.31152344 -7.65039062 9.82617188 C-10.53479615 12.74929425 -13.25835506 15.25809135 -17 17 C-17.99 16.67 -18.98 16.34 -20 16 C-19.01257813 15.15695312 -18.02515625 14.31390625 -17.0078125 13.4453125 C-15.71350438 12.33858527 -14.41923559 11.23181204 -13.125 10.125 C-12.47402344 9.56941406 -11.82304687 9.01382812 -11.15234375 8.44140625 C-10.52714844 7.90644531 -9.90195312 7.37148438 -9.2578125 6.8203125 C-8.6817627 6.32805176 -8.10571289 5.83579102 -7.51220703 5.32861328 C-6.30047746 4.26399715 -5.14054725 3.14054725 -4 2 Z " fill="#546675" transform="translate(483,485)"/>
<path d="M0 0 C0.598125 0.226875 1.19625 0.45375 1.8125 0.6875 C0.966875 1.161875 0.12125 1.63625 -0.75 2.125 C-3.32263749 4.32853851 -3.32263749 4.32853851 -3.4375 6.53515625 C-2.93426083 12.31192254 -0.99562891 17.66439758 0.97265625 23.0859375 C1.8125 25.6875 1.8125 25.6875 1.8125 28.6875 C1.1525 28.6875 0.4925 28.6875 -0.1875 28.6875 C-0.45304687 27.81867188 -0.71859375 26.94984375 -0.9921875 26.0546875 C-1.52199219 24.32605469 -1.52199219 24.32605469 -2.0625 22.5625 C-2.41054688 21.42554688 -2.75859375 20.28859375 -3.1171875 19.1171875 C-3.81121628 16.89325586 -4.54727748 14.68184214 -5.33203125 12.48828125 C-6.44293027 8.85122828 -6.08755815 6.35696784 -5.1875 2.6875 C-3.52310502 0.15127908 -3.04193038 -0.43456148 0 0 Z " fill="#8FA4B4" transform="translate(508.1875,201.3125)"/>
<path d="M0 0 C-0.88260498 0.29245605 -1.76520996 0.58491211 -2.67456055 0.88623047 C-5.96435635 1.97713152 -9.25368993 3.06940499 -12.54272461 4.16259766 C-13.96344147 4.63449883 -15.38433777 5.10586015 -16.80541992 5.57666016 C-18.85383319 6.25539884 -20.90158274 6.9361081 -22.94921875 7.6171875 C-24.17987061 8.02565918 -25.41052246 8.43413086 -26.6784668 8.85498047 C-29.93797874 9.92755016 -29.93797874 9.92755016 -32.75317383 11.21142578 C-35 12 -35 12 -38 11 C-36.68 10.67 -35.36 10.34 -34 10 C-34 9.34 -34 8.68 -34 8 C-32.91203125 7.74605469 -31.8240625 7.49210937 -30.703125 7.23046875 C-24.28366174 5.62843089 -18.04147815 3.43203566 -11.78125 1.30273438 C-10.83765625 0.99271484 -9.8940625 0.68269531 -8.921875 0.36328125 C-8.07206055 0.07751221 -7.22224609 -0.20825684 -6.34667969 -0.50268555 C-3.82805059 -1.03643997 -2.40791344 -0.83262673 0 0 Z " fill="#121822" transform="translate(231,41)"/>
<path d="M0 0 C0 0.66 0 1.32 0 2 C-1.72850345 2.79311367 -3.45783354 3.5844259 -5.1875 4.375 C-6.15042969 4.81585938 -7.11335938 5.25671875 -8.10546875 5.7109375 C-9.06066406 6.13632812 -10.01585937 6.56171875 -11 7 C-12.32451172 7.60714844 -12.32451172 7.60714844 -13.67578125 8.2265625 C-16 9 -16 9 -19 8 C-15.87095331 4.87095331 -13.81121795 3.3901191 -9.625 1.875 C-8.66851562 1.52179688 -7.71203125 1.16859375 -6.7265625 0.8046875 C-4 0 -4 0 0 0 Z " fill="#415261" transform="translate(388,498)"/>
<path d="M0 0 C0 3.72703133 -1.26880877 4.63040041 -3.81103516 7.17675781 C-4.34776855 7.69592773 -4.88450195 8.21509766 -5.4375 8.75 C-6.25033447 9.54809082 -6.25033447 9.54809082 -7.07958984 10.36230469 C-19.09577555 22 -19.09577555 22 -23 22 C-22.1875 20.0625 -22.1875 20.0625 -21 18 C-20.01 17.67 -19.02 17.34 -18 17 C-17.67 16.34 -17.34 15.68 -17 15 C-16.34 15 -15.68 15 -15 15 C-15 14.34 -15 13.68 -15 13 C-13.49609375 11.73828125 -13.49609375 11.73828125 -11.4375 10.3125 C-7.19330791 7.24851106 -3.59237443 3.79444549 0 0 Z " fill="#5D6E7D" transform="translate(437,425)"/>
<path d="M0 0 C1.62557803 3.14510365 2.7023094 6.13736063 3.625 9.5625 C3.88539062 10.51253906 4.14578125 11.46257812 4.4140625 12.44140625 C5 15 5 15 5 18 C5.66 18 6.32 18 7 18 C7 20.31 7 22.62 7 25 C7.66 25 8.32 25 9 25 C9.33 27.31 9.66 29.62 10 32 C9.34 32 8.68 32 8 32 C6.83330247 28.7362466 5.69573267 25.46300813 4.5625 22.1875 C4.23701172 21.27806641 3.91152344 20.36863281 3.57617188 19.43164062 C1.35130921 12.94054646 0.31824865 6.85107072 0 0 Z " fill="#181E28" transform="translate(12,360)"/>
<path d="M0 0 C0.66 0 1.32 0 2 0 C1.71125 0.845625 1.4225 1.69125 1.125 2.5625 C-0.00772704 6.02361041 -1.01824316 9.49372557 -2 13 C-2.66 13 -3.32 13 -4 13 C-4 14.32 -4 15.64 -4 17 C-4.66 17 -5.32 17 -6 17 C-6 18.65 -6 20.3 -6 22 C-6.99 21.67 -7.98 21.34 -9 21 C-6.76686274 13.55620912 -3.59727921 6.88023305 0 0 Z " fill="#232A33" transform="translate(36,160)"/>
<path d="M0 0 C3.72085285 3.72085285 5.08709528 9.16649968 7 14 C7.61875 15.53333984 7.61875 15.53333984 8.25 17.09765625 C8.62125 18.05542969 8.9925 19.01320312 9.375 20 C9.71273437 20.86625 10.05046875 21.7325 10.3984375 22.625 C11.04926848 25.1945145 10.8795686 26.53263873 10 29 C7.50150739 22.88604162 5.10264531 16.73383073 2.75 10.5625 C2.34467041 9.51545898 2.34467041 9.51545898 1.93115234 8.44726562 C0.81106295 5.48821273 0 3.19190178 0 0 Z " fill="#899EAE" transform="translate(541,188)"/>
<path d="M0 0 C0.66 0 1.32 0 2 0 C1.42461386 4.21949834 -0.01784899 7.05772669 -2.3125 10.625 C-2.90675781 11.56601563 -3.50101562 12.50703125 -4.11328125 13.4765625 C-5.9200482 15.89306653 -7.42133059 17.45490769 -10 19 C-12.25 18.6875 -12.25 18.6875 -14 18 C-13.38125 17.731875 -12.7625 17.46375 -12.125 17.1875 C-9.7004767 16.04443152 -9.7004767 16.04443152 -8 13 C-7.34 13 -6.68 13 -6 13 C-5.67 11.35 -5.34 9.7 -5 8 C-4.34 8 -3.68 8 -3 8 C-2.67 6.35 -2.34 4.7 -2 3 C-1.34 3 -0.68 3 0 3 C0 2.01 0 1.02 0 0 Z " fill="#222A34" transform="translate(459,137)"/>
<path d="M0 0 C1.92578125 0.6953125 1.92578125 0.6953125 4 2 C4.79296875 4.2421875 4.79296875 4.2421875 5.1875 6.875 C5.32542969 7.73867188 5.46335937 8.60234375 5.60546875 9.4921875 C5.73566406 10.31976563 5.86585937 11.14734375 6 12 C6.36256677 14.19455722 6.36256677 14.19455722 7 16 C7.66 16.33 8.32 16.66 9 17 C9.6328125 18.84765625 9.6328125 18.84765625 10.125 21.0625 C10.37636719 22.16271484 10.37636719 22.16271484 10.6328125 23.28515625 C10.75398438 23.85105469 10.87515625 24.41695313 11 25 C8.50674341 22.76800086 7.24774005 20.73181538 5.95703125 17.65625 C5.60576172 16.82222656 5.25449219 15.98820312 4.89257812 15.12890625 C4.35793945 13.82759766 4.35793945 13.82759766 3.8125 12.5 C3.26045898 11.19869141 3.26045898 11.19869141 2.69726562 9.87109375 C0 3.39565457 0 3.39565457 0 0 Z " fill="#121721" transform="translate(23,397)"/>
<path d="M0 0 C0.99 0.33 1.98 0.66 3 1 C2.13375 1.804375 1.2675 2.60875 0.375 3.4375 C-1.40809741 5.54616295 -2.01839837 6.46736713 -1.921875 9.26171875 C-1.39025317 11.55908454 -0.74056997 13.76201381 0 16 C0.96462 19.10305469 1.07791829 19.76624513 0 23 C-3.01459492 17.40146658 -4.88630623 10.35186133 -4 4 C-2 1.625 -2 1.625 0 0 Z " fill="#8AA0B0" transform="translate(471,234)"/>
<path d="M0 0 C4.62 0 9.24 0 14 0 C14 0.66 14 1.32 14 2 C15.98 1.67 17.96 1.34 20 1 C20 1.66 20 2.32 20 3 C21.32 3.33 22.64 3.66 24 4 C15.5657073 4.45636453 8.14043404 3.17423358 0 1 C0 0.67 0 0.34 0 0 Z " fill="#1C252D" transform="translate(238,581)"/>
<path d="M0 0 C-2.05952358 1.29662538 -4.12237057 2.58735727 -6.1875 3.875 C-6.76564453 4.23980469 -7.34378906 4.60460937 -7.93945312 4.98046875 C-11.20278033 7.0085252 -14.38059362 8.70492051 -18 10 C-18.33 9.01 -18.66 8.02 -19 7 C-18.030625 6.87625 -17.06125 6.7525 -16.0625 6.625 C-15.051875 6.41875 -14.04125 6.2125 -13 6 C-12.67 5.34 -12.34 4.68 -12 4 C-10.29296875 2.67578125 -10.29296875 2.67578125 -8.1875 1.3125 C-7.50042969 0.85488281 -6.81335938 0.39726562 -6.10546875 -0.07421875 C-3.59474972 -1.17818983 -2.52481387 -0.93616694 0 0 Z " fill="#455765" transform="translate(422,496)"/>
<path d="M0 0 C0.66 0 1.32 0 2 0 C3.37316498 2.90808906 4.72008134 5.82760613 6.0625 8.75 C6.45244141 9.575 6.84238281 10.4 7.24414062 11.25 C7.79038086 12.44882812 7.79038086 12.44882812 8.34765625 13.671875 C8.68804932 14.4050293 9.02844238 15.13818359 9.37915039 15.89355469 C10.09847116 18.33409719 9.82742385 19.62789536 9 22 C7.4905412 18.90034597 5.99409333 15.79458597 4.5 12.6875 C4.07074219 11.80642578 3.64148437 10.92535156 3.19921875 10.01757812 C2.79316406 9.17001953 2.38710938 8.32246094 1.96875 7.44921875 C1.59169922 6.66893311 1.21464844 5.88864746 0.82617188 5.0847168 C0 3 0 3 0 0 Z " fill="#212831" transform="translate(51,392)"/>
<path d="M0 0 C1.41655793 -0.0272415 2.83327045 -0.04650467 4.25 -0.0625 C5.43335938 -0.07990234 5.43335938 -0.07990234 6.640625 -0.09765625 C8.90691002 -0.00385306 10.8288895 0.36758937 13 1 C13 1.66 13 2.32 13 3 C14.299375 3.12375 15.59875 3.2475 16.9375 3.375 C19.15234375 3.5859375 19.15234375 3.5859375 21 4 C21.33 4.66 21.66 5.32 22 6 C14.36945905 5.38955672 7.29810526 3.20378179 0 1 C0 0.67 0 0.34 0 0 Z " fill="#1C232E" transform="translate(349,38)"/>
<path d="M0 0 C-1 3 -1 3 -3.87109375 4.60546875 C-5.04800781 5.12753906 -6.22492188 5.64960938 -7.4375 6.1875 C-8.61183594 6.71730469 -9.78617187 7.24710937 -10.99609375 7.79296875 C-14 9 -14 9 -16 9 C-15 6 -15 6 -12.12890625 4.39453125 C-10.95199219 3.87246094 -9.77507812 3.35039062 -8.5625 2.8125 C-7.38816406 2.28269531 -6.21382813 1.75289063 -5.00390625 1.20703125 C-2 0 -2 0 0 0 Z " fill="#3E4F5D" transform="translate(404,504)"/>
<path d="M0 0 C0.66 0 1.32 0 2 0 C0.62820313 7.48252838 -1.92163279 14.05604954 -5 21 C-5.66 20.67 -6.32 20.34 -7 20 C-5.53196507 15.35122273 -3.76087011 10.86973062 -1.90234375 6.3671875 C-1.09648775 4.25312372 -0.49281185 2.20495197 0 0 Z " fill="#7990A1" transform="translate(563,388)"/>
<path d="M0 0 C0.99 0.495 0.99 0.495 2 1 C2.53454033 3.62815663 2.93406721 6.15727071 3.25 8.8125 C3.353125 9.53759766 3.45625 10.26269531 3.5625 11.00976562 C4.04937826 14.92269164 4.32854597 17.68964173 2 21 C1.6616656 18.62561751 1.32920998 16.25065041 1 13.875 C0.90460937 13.20984375 0.80921875 12.5446875 0.7109375 11.859375 C0.16388547 7.87371019 -0.10022182 4.02140062 0 0 Z " fill="#8A9FAF" transform="translate(559,253)"/>
<path d="M0 0 C1.485 0.99 1.485 0.99 3 2 C3.22107787 4.7885289 3.28107535 7.34653181 3.1875 10.125 C3.17396484 10.87910156 3.16042969 11.63320313 3.14648438 12.41015625 C3.11109985 14.27374127 3.05729167 16.13695978 3 18 C-0.73997229 12.39004157 -0.11406407 6.52699931 0 0 Z " fill="#202730" transform="translate(5,321)"/>
<path d="M0 0 C0.33 0 0.66 0 1 0 C1.76299944 8.14648632 2.21521251 15.88611956 1 24 C0.01 24.33 -0.98 24.66 -2 25 C-1.34 16.75 -0.68 8.5 0 0 Z " fill="#9AACBA" transform="translate(561,308)"/>
<path d="M0 0 C0.33 0 0.66 0 1 0 C2.21521251 8.11388044 1.76299944 15.85351368 1 24 C-1 22 -1 22 -1.23046875 18.76953125 C-1.21628906 17.46371094 -1.20210938 16.15789062 -1.1875 14.8125 C-1.18105469 13.51957031 -1.17460938 12.22664063 -1.16796875 10.89453125 C-1.00728646 7.16894409 -0.59561728 3.67376737 0 0 Z " fill="#161E28" transform="translate(6,257)"/>
<path d="M0 0 C-2.47989913 2.85818883 -5.13646878 4.19893393 -8.5625 5.75 C-10.01849609 6.42289063 -10.01849609 6.42289063 -11.50390625 7.109375 C-12.32761719 7.40328125 -13.15132812 7.6971875 -14 8 C-14.66 7.67 -15.32 7.34 -16 7 C-11.69195712 1.93171426 -6.58286327 -0.64223056 0 0 Z " fill="#1C242D" transform="translate(190,54)"/>
<path d="M0 0 C-0.33 0.99 -0.66 1.98 -1 3 C-2.9609375 3.9140625 -2.9609375 3.9140625 -5.375 4.625 C-6.16648437 4.86476563 -6.95796875 5.10453125 -7.7734375 5.3515625 C-8.50820313 5.56554687 -9.24296875 5.77953125 -10 6 C-10.99 6.33 -11.98 6.66 -13 7 C-13.66 6.34 -14.32 5.68 -15 5 C-13.25447527 4.15733289 -11.5033792 3.32619962 -9.75 2.5 C-8.77546875 2.0359375 -7.8009375 1.571875 -6.796875 1.09375 C-4 0 -4 0 0 0 Z M-15 7 C-14.34 7.33 -13.68 7.66 -13 8 C-13.99 8 -14.98 8 -16 8 C-15.67 7.67 -15.34 7.34 -15 7 Z " fill="#475966" transform="translate(373,457)"/>
<path d="M0 0 C0.33 0.66 0.66 1.32 1 2 C-0.41564607 3.89660274 -1.83248455 5.79229517 -3.25 7.6875 C-4.03890625 8.74324219 -4.8278125 9.79898437 -5.640625 10.88671875 C-6.41921875 11.91410156 -7.1978125 12.94148438 -8 14 C-8.71671875 14.95519531 -9.4334375 15.91039062 -10.171875 16.89453125 C-10.77515625 17.58933594 -11.3784375 18.28414063 -12 19 C-12.66 19 -13.32 19 -14 19 C-12.66895994 16.13909231 -11.16444643 13.77740198 -9.1796875 11.328125 C-8.37724609 10.33232422 -8.37724609 10.33232422 -7.55859375 9.31640625 C-7.00300781 8.63449219 -6.44742187 7.95257813 -5.875 7.25 C-5.03001953 6.20392578 -5.03001953 6.20392578 -4.16796875 5.13671875 C-2.78192264 3.42178035 -1.39252792 1.709676 0 0 Z " fill="#617585" transform="translate(453,405)"/>
<path d="M0 0 C0.33 0.66 0.66 1.32 1 2 C-0.1796875 4.2421875 -0.1796875 4.2421875 -1.875 6.875 C-3.82653296 9.91576066 -5.35131727 12.42392857 -6 16 C-6.66 16 -7.32 16 -8 16 C-8 16.99 -8 17.98 -8 19 C-8.66 19 -9.32 19 -10 19 C-9.44822378 14.41336016 -7.4503798 11.06265388 -5 7.25 C-4.63132812 6.66089844 -4.26265625 6.07179688 -3.8828125 5.46484375 C-1.19041149 1.19041149 -1.19041149 1.19041149 0 0 Z " fill="#21262F" transform="translate(450,101)"/>
<path d="M0 0 C-2.38481222 2.76136152 -4.62461563 3.71413929 -8 5 C-8.886875 5.556875 -9.77375 6.11375 -10.6875 6.6875 C-11.450625 7.120625 -12.21375 7.55375 -13 8 C-13.66 7.67 -14.32 7.34 -15 7 C-11.30105241 2.68456114 -5.76210785 -1.92070262 0 0 Z " fill="#232C35" transform="translate(158,39)"/>
<path d="M0 0 C0.99 0.33 1.98 0.66 3 1 C-2.13398101 5.14443819 -7.16903048 8.89842047 -13 12 C-13.66 11.34 -14.32 10.68 -15 10 C-13.35 9.67 -11.7 9.34 -10 9 C-10 8.34 -10 7.68 -10 7 C-9.01 7 -8.02 7 -7 7 C-6.67 6.01 -6.34 5.02 -6 4 C-3 2 -3 2 0 2 C0 1.34 0 0.68 0 0 Z " fill="#516473" transform="translate(410,448)"/>
<path d="M0 0 C3.96 0 7.92 0 12 0 C12 0.33 12 0.66 12 1 C9.69 1.33 7.38 1.66 5 2 C5 2.33 5 2.66 5 3 C-1.37305598 3.74507544 -7.58311325 4.10349817 -14 4 C-14 3.67 -14 3.34 -14 3 C-9.23692563 2.04738513 -4.8333472 1.91666643 0 2 C0 1.34 0 0.68 0 0 Z " fill="#17212B" transform="translate(269,31)"/>
<path d="M0 0 C4.29002964 0.47666996 6.08117894 3.01329938 9 6 C11.28197878 7.75427119 13.62523139 9.37025684 16 11 C15.01 11.33 14.02 11.66 13 12 C10.81120296 10.65943596 8.88509753 9.32083631 6.875 7.75 C6.32457031 7.34136719 5.77414063 6.93273437 5.20703125 6.51171875 C2.4665845 4.4176673 1.11337236 3.34011709 0 0 Z " fill="#212832" transform="translate(115,523)"/>
<path d="M0 0 C3.4375 0.8125 3.4375 0.8125 7 2 C7.33 2.99 7.66 3.98 8 5 C9.1446875 5.0928125 9.1446875 5.0928125 10.3125 5.1875 C13 6 13 6 14.8125 8.5625 C15.204375 9.366875 15.59625 10.17125 16 11 C11.87321179 9.55901911 8.69813572 7.52700506 5.1875 4.9375 C4.21167969 4.22464844 3.23585938 3.51179688 2.23046875 2.77734375 C1.49441406 2.19082031 0.75835937 1.60429688 0 1 C0 0.67 0 0.34 0 0 Z " fill="#1D252D" transform="translate(441,77)"/>
<path d="M0 0 C6.30596952 1.10938353 11.37529486 2.93197901 17 6 C17 6.66 17 7.32 17 8 C10.85326729 6.53012914 5.57765673 3.94033413 0 1 C0 0.67 0 0.34 0 0 Z " fill="#212831" transform="translate(419,32)"/>
<path d="M0 0 C4.6889493 0.55619669 8.19924267 1.88182673 12.375 4.0625 C13.43460937 4.61035156 14.49421875 5.15820312 15.5859375 5.72265625 C16.38257813 6.14417969 17.17921875 6.56570312 18 7 C13.94079348 8.35306884 11.58134551 6.84599602 7.875 5.1875 C6.90626953 4.77661133 6.90626953 4.77661133 5.91796875 4.35742188 C1.13292254 2.26584507 1.13292254 2.26584507 0 0 Z " fill="#1F252D" transform="translate(400,23)"/>
<path d="M0 0 C0.69480469 0.32742188 1.38960938 0.65484375 2.10546875 0.9921875 C5.36368828 2.12662831 7.87449502 2.20056055 11.3125 2.125 C12.38113281 2.10695313 13.44976562 2.08890625 14.55078125 2.0703125 C15.76314453 2.03550781 15.76314453 2.03550781 17 2 C17 2.66 17 3.32 17 4 C12.05 4 7.1 4 2 4 C1.34 2.68 0.68 1.36 0 0 Z " fill="#15212B" transform="translate(301,526)"/>
<path d="M0 0 C0.99 0.33 1.98 0.66 3 1 C3.29777344 1.65742188 3.59554688 2.31484375 3.90234375 2.9921875 C4.8213705 5.2025717 4.8213705 5.2025717 7.12890625 5.7578125 C8.33353516 5.93957031 8.33353516 5.93957031 9.5625 6.125 C12.00390625 6.5078125 12.00390625 6.5078125 14 7 C14.33 7.66 14.66 8.32 15 9 C8.21332388 9.71438696 8.21332388 9.71438696 4.91015625 7.76953125 C3.08296623 6.25621436 1.45854728 4.87332167 0 3 C0 2.01 0 1.02 0 0 Z " fill="#1D2530" transform="translate(429,148)"/>
<path d="M0 0 C2.31 0.66 4.62 1.32 7 2 C7 2.33 7 2.66 7 3 C6.071875 3.20625 5.14375 3.4125 4.1875 3.625 C0.73995905 4.74446192 0.73995905 4.74446192 -0.875 8.125 C-1.24625 9.07375 -1.6175 10.0225 -2 11 C-2.33 11 -2.66 11 -3 11 C-3.36923077 4.6 -3.36923077 4.6 -1.5 1.5625 C-1.005 1.046875 -0.51 0.53125 0 0 Z " fill="#2B353F" transform="translate(303,516)"/>
<path d="M0 0 C0.598125 0.309375 1.19625 0.61875 1.8125 0.9375 C4.08956772 2.10209704 4.08956772 2.10209704 7 3 C7.99 4.485 7.99 4.485 9 6 C9.99 6.33 10.98 6.66 12 7 C12.33 8.65 12.66 10.3 13 12 C7.90789714 8.43679155 3.77339973 4.95258714 0 0 Z " fill="#2C333C" transform="translate(102,513)"/>
<path d="M0 0 C0.99 0.33 1.98 0.66 3 1 C-0.28355362 4.67758005 -3.62778237 6.81389118 -8 9 C-8.66 8.67 -9.32 8.34 -10 8 C-6.97731777 4.74480375 -3.85903564 2.21689281 0 0 Z " fill="#4B5D6C" transform="translate(425,475)"/>
<path d="M0 0 C0 3.88433166 -1.17079686 4.67605496 -3.75 7.5 C-4.44609375 8.2734375 -5.1421875 9.046875 -5.859375 9.84375 C-7.80108592 11.79963399 -9.74930748 13.41843228 -12 15 C-12.66 14.67 -13.32 14.34 -14 14 C-9.38 9.38 -4.76 4.76 0 0 Z " fill="#5D6F7D" transform="translate(494,472)"/>
<path d="M0 0 C1.5 1.375 1.5 1.375 3 3 C3 3.66 3 4.32 3 5 C3.99 5 4.98 5 6 5 C7.06775224 6.96466413 8.06553465 8.96855359 9 11 C8.67 11.66 8.34 12.32 8 13 C5 12 5 12 3.61328125 9.78515625 C3.18402344 8.88667969 2.75476563 7.98820313 2.3125 7.0625 C1.87550781 6.16660156 1.43851562 5.27070313 0.98828125 4.34765625 C0 2 0 2 0 0 Z " fill="#2F3741" transform="translate(406,234)"/>
<path d="M0 0 C2.64 0.33 5.28 0.66 8 1 C8 1.66 8 2.32 8 3 C9.65 3 11.3 3 13 3 C12.67 3.99 12.34 4.98 12 6 C6 4 6 4 0 2 C0 1.34 0 0.68 0 0 Z " fill="#2D343D" transform="translate(381,47)"/>
<path d="M0 0 C-2.35418843 2.35418843 -4.25583671 2.99608031 -7.375 4.125 C-8.80972656 4.65480469 -8.80972656 4.65480469 -10.2734375 5.1953125 C-13 6 -13 6 -17 6 C-17 5.34 -17 4.68 -17 4 C-15.10751181 3.32389577 -13.2108398 2.65949561 -11.3125 2 C-10.25675781 1.62875 -9.20101562 1.2575 -8.11328125 0.875 C-5.21637944 0.0608143 -2.98299377 -0.17709796 0 0 Z " fill="#242B34" transform="translate(213,15)"/>
<path d="M0 0 C-2.36300349 2.36300349 -3.5798498 2.51433444 -6.8125 3.125 C-8.09060547 3.37636719 -8.09060547 3.37636719 -9.39453125 3.6328125 C-11.96843811 3.995552 -14.40461588 4.06523407 -17 4 C-11.74396906 -0.47735969 -6.59322988 -0.11174966 0 0 Z " fill="#272D35" transform="translate(246,7)"/>
<path d="M0 0 C-5.24456447 4.3080351 -9.4294171 4.10950972 -16 4 C-12.11376605 0.11376605 -5.32712984 -0.3436858 0 0 Z " fill="#252F3A" transform="translate(365,577)"/>
<path d="M0 0 C2.0839403 0.11443603 4.16716493 0.24195547 6.25 0.375 C7.41015625 0.44460938 8.5703125 0.51421875 9.765625 0.5859375 C12.70694334 0.96248308 14.49949011 1.4774123 17 3 C12.06481214 3.76580501 7.89526419 4.36612024 3 3 C1.33203125 1.453125 1.33203125 1.453125 0 0 Z " fill="#171F29" transform="translate(245,554)"/>
<path d="M0 0 C0.66 0.33 1.32 0.66 2 1 C1.14285714 9.57142857 1.14285714 9.57142857 -1 13 C-1.33 12.67 -1.66 12.34 -2 12 C-1.93607199 10.16352258 -1.79944271 8.32929108 -1.625 6.5 C-1.53476563 5.4996875 -1.44453125 4.499375 -1.3515625 3.46875 C-1 1 -1 1 0 0 Z " fill="#222B35" transform="translate(13,222)"/>
<path d="M0 0 C0.33 0.99 0.66 1.98 1 3 C1.66 3 2.32 3 3 3 C6.03877834 5.64667791 8.1623645 8.41661078 10 12 C10 12.99 10 13.98 10 15 C6.40521424 11.50792241 2.99752225 8.02524416 0 4 C0 2.68 0 1.36 0 0 Z " fill="#242B35" transform="translate(68,475)"/>
<path d="M0 0 C0.66 0 1.32 0 2 0 C1.39254603 4.85963179 -0.72758967 8.7405518 -3 13 C-3.66 13 -4.32 13 -5 13 C-4.54554036 11.58208592 -4.08625056 10.16571954 -3.625 8.75 C-3.24214844 7.56664062 -3.24214844 7.56664062 -2.8515625 6.359375 C-2.04826333 4.13372042 -1.10288338 2.09068328 0 0 Z " fill="#7E93A2" transform="translate(540,399)"/>
<path d="M0 0 C-1.85744232 2.37339853 -2.97847688 2.9940468 -5.9375 3.8125 C-9.18646577 4.01141627 -10.25063875 3.53797962 -13 2 C-11.5882217 1.46605821 -10.17029756 0.94834896 -8.75 0.4375 C-7.96109375 0.14746094 -7.1721875 -0.14257812 -6.359375 -0.44140625 C-3.80896548 -1.04522837 -2.44677771 -0.8473932 0 0 Z " fill="#3E4E5B" transform="translate(375,517)"/>
<path d="M0 0 C4.08963819 2.28538605 7.46362104 4.95706926 11 8 C10.67 8.66 10.34 9.32 10 10 C9.34 10 8.68 10 8 10 C8 9.34 8 8.68 8 8 C7.34 8 6.68 8 6 8 C5.34 7.34 4.68 6.68 4 6 C3.29875 5.525625 2.5975 5.05125 1.875 4.5625 C1.25625 4.046875 0.6375 3.53125 0 3 C0 2.01 0 1.02 0 0 Z " fill="#292F3A" transform="translate(118,488)"/>
<path d="M0 0 C0.66 0.33 1.32 0.66 2 1 C2 1.66 2 2.32 2 3 C0.38542921 4.43581474 -1.29219075 5.80144783 -3 7.125 C-3.928125 7.84945313 -4.85625 8.57390625 -5.8125 9.3203125 C-6.534375 9.87460937 -7.25625 10.42890625 -8 11 C-8.99 10.34 -9.98 9.68 -11 9 C-10.360625 8.71125 -9.72125 8.4225 -9.0625 8.125 C-6.84793921 7.17176549 -6.84793921 7.17176549 -6 5 C-5.360625 4.690625 -4.72125 4.38125 -4.0625 4.0625 C-1.68028507 3.04654078 -1.68028507 3.04654078 0 0 Z " fill="#566877" transform="translate(450,472)"/>
<path d="M0 0 C0.66 1.32 1.32 2.64 2 4 C1.1015625 6.140625 1.1015625 6.140625 -0.375 8.25 C-0.85710937 8.95640625 -1.33921875 9.6628125 -1.8359375 10.390625 C-2.22007812 10.92171875 -2.60421875 11.4528125 -3 12 C-3.66 11.01 -4.32 10.02 -5 9 C-3.35 6.03 -1.7 3.06 0 0 Z " fill="#2A323C" transform="translate(439,118)"/>
<path d="M0 0 C-0.99 1.485 -0.99 1.485 -2 3 C-5.625 3.6875 -5.625 3.6875 -9 4 C-9 4.66 -9 5.32 -9 6 C-9.66 6 -10.32 6 -11 6 C-11 5.01 -11 4.02 -11 3 C-7.14243493 0.84694043 -4.44870215 -0.39253254 0 0 Z " fill="#222B35" transform="translate(171,32)"/>
<path d="M0 0 C0.66 0.33 1.32 0.66 2 1 C2 5.29 2 9.58 2 14 C0.29094502 10.58189003 -0.32287711 8.92884181 -0.6875 5.3125 C-0.77386719 4.52488281 -0.86023437 3.73726563 -0.94921875 2.92578125 C-0.96597656 2.29027344 -0.98273437 1.65476562 -1 1 C-0.67 0.67 -0.34 0.34 0 0 Z " fill="#41464C" transform="translate(10,350)"/>
<path d="M0 0 C0.66 0 1.32 0 2 0 C0.6062718 4.43458973 -1.60582235 6.87378374 -5 10 C-5 6.65580848 -4.52480606 5.93159679 -2.625 3.3125 C-2.18414062 2.68988281 -1.74328125 2.06726563 -1.2890625 1.42578125 C-0.86367188 0.95527344 -0.43828125 0.48476562 0 0 Z " fill="#1D242E" transform="translate(62,119)"/>
<path d="M0 0 C3.375 1 3.375 1 6 2 C6 2.33 6 2.66 6 3 C-4.55808656 3.18451025 -4.55808656 3.18451025 -9 2 C-5.47425575 -0.35049617 -4.15027493 -0.32551176 0 0 Z " fill="#151A24" transform="translate(327,32)"/>
<path d="M0 0 C4 0 4 0 6.0625 1.8125 C6.701875 2.534375 7.34125 3.25625 8 4 C8.5775 4.5775 9.155 5.155 9.75 5.75 C10.1625 6.1625 10.575 6.575 11 7 C6.4923533 6.46968862 3.58045212 4.74778884 0 2 C0 1.34 0 0.68 0 0 Z " fill="#232A34" transform="translate(132,536)"/>
<path d="M0 0 C-3.52679099 2.35119399 -5.02879485 2.21443452 -9.1875 2.125 C-10.27417969 2.10695313 -11.36085938 2.08890625 -12.48046875 2.0703125 C-13.72763672 2.03550781 -13.72763672 2.03550781 -15 2 C-15 1.67 -15 1.34 -15 1 C-9.42567486 -0.66251802 -5.6932495 -1.18609365 0 0 Z " fill="#1A2733" transform="translate(334,527)"/>
<path d="M0 0 C0 0.66 0 1.32 0 2 C-6.75 6 -6.75 6 -9 6 C-9 5.01 -9 4.02 -9 3 C-5.66696609 0.50022457 -4.26696398 0 0 0 Z " fill="#3F515F" transform="translate(435,523)"/>
<path d="M0 0 C0.66 0.66 1.32 1.32 2 2 C-1.465 4.97 -1.465 4.97 -5 8 C-5.99 7.34 -6.98 6.68 -8 6 C-5.36 4.02 -2.72 2.04 0 0 Z " fill="#546573" transform="translate(462,502)"/>
<path d="M0 0 C0.99 0.33 1.98 0.66 3 1 C-0.96 3.97 -4.92 6.94 -9 10 C-9 9.01 -9 8.02 -9 7 C-7.13671875 5.140625 -7.13671875 5.140625 -4.6875 3.25 C-3.88699219 2.61578125 -3.08648437 1.9815625 -2.26171875 1.328125 C-1.51535156 0.88984375 -0.76898438 0.4515625 0 0 Z " fill="#536775" transform="translate(409,432)"/>
<path d="M0 0 C1.39211215 4.17633644 -0.0464421 5.78960515 -1.9375 9.6875 C-2.50339844 10.86699219 -3.06929687 12.04648437 -3.65234375 13.26171875 C-4.09707031 14.16535156 -4.54179688 15.06898438 -5 16 C-6.19354714 12.41935859 -5.75567655 11.84846712 -4.1875 8.5625 C-3.83042969 7.80066406 -3.47335937 7.03882813 -3.10546875 6.25390625 C-2.08045256 4.16403226 -1.0466609 2.07911374 0 0 Z " fill="#6E8697" transform="translate(556,408)"/>
<path d="M0 0 C0.33 0.66 0.66 1.32 1 2 C0.07456291 3.34173403 -0.86577405 4.67320159 -1.8125 6 C-2.33457031 6.7425 -2.85664063 7.485 -3.39453125 8.25 C-3.92433594 8.8275 -4.45414062 9.405 -5 10 C-5.99 10 -6.98 10 -8 10 C-5.36 6.7 -2.72 3.4 0 0 Z " fill="#667B8A" transform="translate(442,397)"/>
<path d="M0 0 C0.66 0.33 1.32 0.66 2 1 C0.38405168 3.04119788 -1.2856382 5.04072937 -3 7 C-3.66 7 -4.32 7 -5 7 C-5 7.66 -5 8.32 -5 9 C-5.66 8.67 -6.32 8.34 -7 8 C-5.50902342 4.2047869 -3.24299151 2.38957269 0 0 Z " fill="#212A34" transform="translate(106,72)"/>
<path d="M0 0 C-0.33 0.99 -0.66 1.98 -1 3 C-4.63 3 -8.26 3 -12 3 C-7.87960164 0.25306776 -4.92304458 0 0 0 Z " fill="#2B343F" transform="translate(345,581)"/>
<path d="M0 0 C0.33 0.99 0.66 1.98 1 3 C-3.34464536 2.39174965 -7.67551867 1.73832608 -12 1 C-8.00439392 -1.83022097 -4.57262677 -0.76210446 0 0 Z " fill="#41484F" transform="translate(240,580)"/>
<path d="M0 0 C0.99 0.33 1.98 0.66 3 1 C0.03 3.64 -2.94 6.28 -6 9 C-6 6 -6 6 -3.5625 3.375 C-2.716875 2.59125 -1.87125 1.8075 -1 1 C-0.67 0.67 -0.34 0.34 0 0 Z " fill="#566876" transform="translate(488,504)"/>
<path d="M0 0 C0.66 0 1.32 0 2 0 C0.4114658 4.28904235 -2.43127368 6.32345526 -6 9 C-6.66 9 -7.32 9 -8 9 C-7.1875 7.0625 -7.1875 7.0625 -6 5 C-5.01 4.67 -4.02 4.34 -3 4 C-2.67 3.34 -2.34 2.68 -2 2 C-1.34 2 -0.68 2 0 2 C0 1.34 0 0.68 0 0 Z " fill="#536675" transform="translate(422,438)"/>
<path d="M0 0 C0.33 0 0.66 0 1 0 C1 4.29 1 8.58 1 13 C0.67 11.68 0.34 10.36 0 9 C-0.66 9 -1.32 9 -2 9 C-1.125 2.25 -1.125 2.25 0 0 Z " fill="#151E25" transform="translate(33,309)"/>
<path d="M0 0 C3 2 3 2 3.51171875 4.3828125 C3.56972656 5.28773438 3.62773438 6.19265625 3.6875 7.125 C3.75324219 8.03507813 3.81898438 8.94515625 3.88671875 9.8828125 C3.92410156 10.58148438 3.96148438 11.28015625 4 12 C3.34 12 2.68 12 2 12 C1.34 8.04 0.68 4.08 0 0 Z " fill="#8BA1B0" transform="translate(554,229)"/>
<path d="M0 0 C-2.67477931 2.67477931 -5.492975 3.6464114 -9 5 C-9.99 5 -10.98 5 -12 5 C-12 4.34 -12 3.68 -12 3 C-4.71428571 -0.42857143 -4.71428571 -0.42857143 0 0 Z " fill="#232A33" transform="translate(184,26)"/>
<path d="M0 0 C0.8353125 0.556875 0.8353125 0.556875 1.6875 1.125 C-0.27716413 2.19275224 -2.28105359 3.19053465 -4.3125 4.125 C-6.3125 3.125 -6.3125 3.125 -7.3125 1.125 C-2.88173077 -1.09038462 -2.88173077 -1.09038462 0 0 Z " fill="#4A5966" transform="translate(408.3125,536.875)"/>
<path d="M0 0 C0.99 0.33 1.98 0.66 3 1 C-0.96 4.465 -0.96 4.465 -5 8 C-5.33 7.01 -5.66 6.02 -6 5 C-1.60546875 0.99609375 -1.60546875 0.99609375 0 0 Z " fill="#526674" transform="translate(446,458)"/>
<path d="M0 0 C0.66 0.33 1.32 0.66 2 1 C-0.31 3.64 -2.62 6.28 -5 9 C-5.99 8.67 -6.98 8.34 -8 8 C-5.36 5.36 -2.72 2.72 0 0 Z " fill="#5E7281" transform="translate(464,440)"/>
<path d="M0 0 C0.66 0.33 1.32 0.66 2 1 C-0.97 4.3 -3.94 7.6 -7 11 C-7.66 10.67 -8.32 10.34 -9 10 C-7.8758824 8.70756532 -6.75067408 7.41607925 -5.625 6.125 C-4.99851563 5.40570313 -4.37203125 4.68640625 -3.7265625 3.9453125 C-2.52573166 2.5923402 -1.2791655 1.2791655 0 0 Z " fill="#1B2028" transform="translate(200,204)"/>
<path d="M0 0 C0.66 0 1.32 0 2 0 C0.66749209 3.5875213 -0.830717 6.8364623 -3 10 C-3.66 10 -4.32 10 -5 10 C-4.690625 9.236875 -4.38125 8.47375 -4.0625 7.6875 C-3.32106407 5.81210323 -2.63771783 3.91315348 -2 2 C-1.34 2 -0.68 2 0 2 C0 1.34 0 0.68 0 0 Z " fill="#181F27" transform="translate(467,125)"/>
<path d="M0 0 C0.66 0.33 1.32 0.66 2 1 C1 4 1 4 -1.375 5.25 C-4 6 -4 6 -7 5 C-3 1 -3 1 0 0 Z " fill="#4F5E6A" transform="translate(376,501)"/>
<path d="M0 0 C4.23830976 2.82553984 3.97715348 5.12180888 5 10 C4.01 10.495 4.01 10.495 3 11 C2.49384702 9.73160474 1.99530901 8.46016898 1.5 7.1875 C1.2215625 6.47980469 0.943125 5.77210938 0.65625 5.04296875 C0 3 0 3 0 0 Z " fill="#282E36" transform="translate(46,379)"/>
<path d="M0 0 C0.66 0.33 1.32 0.66 2 1 C0.60667426 4.36720387 -0.9789286 5.9859524 -4 8 C-4.66 7.67 -5.32 7.34 -6 7 C-4.02 4.69 -2.04 2.38 0 0 Z " fill="#232A33" transform="translate(78,99)"/>
<path d="M0 0 C0.99 0.33 1.98 0.66 3 1 C0.24829249 3.9555377 -2.41970299 6.11563315 -6 8 C-6.66 8 -7.32 8 -8 8 C-8 7.34 -8 6.68 -8 6 C-6.35546875 4.45703125 -6.35546875 4.45703125 -4.1875 2.8125 C-3.47980469 2.26207031 -2.77210937 1.71164063 -2.04296875 1.14453125 C-1.36878906 0.76683594 -0.69460937 0.38914063 0 0 Z " fill="#1A212A" transform="translate(117,63)"/>
<path d="M0 0 C0.66 1.32 1.32 2.64 2 4 C0.75 6.75 0.75 6.75 -1 9 C-1.66 9 -2.32 9 -3 9 C-2.01 6.03 -1.02 3.06 0 0 Z " fill="#8297A5" transform="translate(460,363)"/>
<path d="M0 0 C3.58050131 4.17255271 3.26656798 6.66864045 3 12 C0.50494038 9.50494038 0.64051624 8.32671112 0.375 4.875 C0.30023438 3.96492188 0.22546875 3.05484375 0.1484375 2.1171875 C0.09945312 1.41851562 0.05046875 0.71984375 0 0 Z " fill="#1E262D" transform="translate(37,345)"/>
<path d="M0 0 C3.125 0.375 3.125 0.375 6 1 C6 1.33 6 1.66 6 2 C4.35 2.33 2.7 2.66 1 3 C0.34 4.98 -0.32 6.96 -1 9 C-1.33 9 -1.66 9 -2 9 C-2.125 5.625 -2.125 5.625 -2 2 C-1.34 1.34 -0.68 0.68 0 0 Z " fill="#8AA1B2" transform="translate(531,161)"/>
<path d="M0 0 C0.66 0 1.32 0 2 0 C1.67 1.32 1.34 2.64 1 4 C0.34 4 -0.32 4 -1 4 C-1.33 5.65 -1.66 7.3 -2 9 C-2.66 9 -3.32 9 -4 9 C-3.4739075 5.21213403 -2.61896089 2.82847776 0 0 Z " fill="#1E252F" transform="translate(54,130)"/>
<path d="M0 0 C0.66 0.33 1.32 0.66 2 1 C1.67 1.99 1.34 2.98 1 4 C-1.375 4.625 -1.375 4.625 -4 5 C-4.66 4.34 -5.32 3.68 -6 3 C-4.03533587 1.93224776 -2.03144641 0.93446535 0 0 Z " fill="#576774" transform="translate(392,494)"/>
<path d="M0 0 C2.97 0.33 5.94 0.66 9 1 C8.34 1.66 7.68 2.32 7 3 C3.375 2.625 3.375 2.625 0 2 C0 1.34 0 0.68 0 0 Z " fill="#8DA2B3" transform="translate(563,163)"/>
<path d="M0 0 C0.66 0.33 1.32 0.66 2 1 C-0.80804268 3.96404505 -3.18315774 6.44499019 -7 8 C-5.61918777 3.8575633 -3.40174442 2.67796901 0 0 Z " fill="#252D37" transform="translate(154,71)"/>
<path d="M0 0 C-2.39763185 2.39763185 -3.33273498 2.34280586 -6.625 2.625 C-7.44226563 2.69976562 -8.25953125 2.77453125 -9.1015625 2.8515625 C-9.72804687 2.90054687 -10.35453125 2.94953125 -11 3 C-8.89427904 -1.21144191 -4.11694326 -0.07767817 0 0 Z " fill="#252D34" transform="translate(228,11)"/>
<path d="M0 0 C2.31 0.66 4.62 1.32 7 2 C7 2.66 7 3.32 7 4 C7.66 4.33 8.32 4.66 9 5 C8.01 5.495 8.01 5.495 7 6 C3.9375 4.75 3.9375 4.75 1 3 C0.67 2.01 0.34 1.02 0 0 Z " fill="#252D37" transform="translate(150,547)"/>
<path d="M0 0 C0.66 0 1.32 0 2 0 C2 0.66 2 1.32 2 2 C2.99 2 3.98 2 5 2 C5.33 3.32 5.66 4.64 6 6 C1.25 4.125 1.25 4.125 -1 3 C-0.67 2.01 -0.34 1.02 0 0 Z " fill="#2F363F" transform="translate(145,543)"/>
<path d="M0 0 C-1 2 -1 2 -4.0625 3.125 C-5.5165625 3.558125 -5.5165625 3.558125 -7 4 C-7.66 3.34 -8.32 2.68 -9 2 C-3.375 -1.125 -3.375 -1.125 0 0 Z " fill="#576876" transform="translate(380,454)"/>
<path d="M0 0 C0.66 0.66 1.32 1.32 2 2 C0.68 4.31 -0.64 6.62 -2 9 C-2.33 9 -2.66 9 -3 9 C-2.25 2.25 -2.25 2.25 0 0 Z " fill="#ECECED" transform="translate(185,218)"/>
<path d="M0 0 C0.66 0.33 1.32 0.66 2 1 C0.12050295 4.57104439 -1.17053157 6.54744301 -5 8 C-3.8141763 4.62496331 -2.72426311 2.35277269 0 0 Z " fill="#1E242D" transform="translate(69,110)"/>
<path d="M0 0 C2.71928517 0.37507382 3.84218661 0.84218661 5.8125 2.8125 C7 5 7 5 6.6875 7.25 C6.460625 7.8275 6.23375 8.405 6 9 C5.7525 8.05125 5.505 7.1025 5.25 6.125 C4.3142923 2.91306809 4.3142923 2.91306809 1.875 1.625 C1.25625 1.41875 0.6375 1.2125 0 1 C0 0.67 0 0.34 0 0 Z " fill="#1B212B" transform="translate(480,67)"/>
<path d="M0 0 C0.80824219 0.11085937 1.61648438 0.22171875 2.44921875 0.3359375 C3.37154297 0.47902344 3.37154297 0.47902344 4.3125 0.625 C-0.06758443 3.20964442 -2.79875113 2.43979148 -7.6875 1.625 C-4.33422361 -0.61051759 -3.78006343 -0.54783528 0 0 Z " fill="#3D454D" transform="translate(348.6875,36.375)"/>
<path d="M0 0 C0.53625 0.226875 1.0725 0.45375 1.625 0.6875 C-3.79038462 3.76442308 -3.79038462 3.76442308 -6.75 3.375 C-7.554375 3.0346875 -7.554375 3.0346875 -8.375 2.6875 C-2.95961538 -0.38942308 -2.95961538 -0.38942308 0 0 Z " fill="#222A32" transform="translate(193.375,21.3125)"/>
<path d="M0 0 C2.0245738 1.93254772 3.42105792 3.63158688 5 6 C4.625 8.1875 4.625 8.1875 4 10 C0 3.375 0 3.375 0 0 Z " fill="#1A2028" transform="translate(62,415)"/>
<path d="M0 0 C2.17766075 4.35532149 2.03039555 5.46625958 1 10 C0.01 10 -0.98 10 -2 10 C-1.34 6.7 -0.68 3.4 0 0 Z " fill="#97AAB8" transform="translate(554,356)"/>
<path d="M0 0 C0.33 0 0.66 0 1 0 C1.33 3.63 1.66 7.26 2 11 C1.34 10.67 0.68 10.34 0 10 C-0.89093449 6.35526801 -1.23666047 3.57257469 0 0 Z " fill="#32383F" transform="translate(40,353)"/>
<path d="M0 0 C0.33 0 0.66 0 1 0 C1.144375 0.928125 1.28875 1.85625 1.4375 2.8125 C1.92100111 6.00725111 1.92100111 6.00725111 3 9 C2.0625 11.1875 2.0625 11.1875 1 13 C0.1276588 10.00519083 -0.10829766 7.36424089 -0.0625 4.25 C-0.05347656 3.45078125 -0.04445313 2.6515625 -0.03515625 1.828125 C-0.02355469 1.22484375 -0.01195312 0.6215625 0 0 Z " fill="#9CAEBC" transform="translate(560,261)"/>
<path d="M0 0 C0.66 0 1.32 0 2 0 C2.6875 1.8125 2.6875 1.8125 3 4 C1.5625 5.75 1.5625 5.75 0 7 C-0.93423645 3.98968256 -1.04449911 3.13349732 0 0 Z " fill="#222A33" transform="translate(24,186)"/>
<path d="M0 0 C0.33 0.66 0.66 1.32 1 2 C3.01669827 3.13350534 3.01669827 3.13350534 5 4 C-1.15234375 3.4140625 -1.15234375 3.4140625 -3 3 C-3.33 2.34 -3.66 1.68 -4 1 C-2.68 0.67 -1.36 0.34 0 0 Z " fill="#1A222C" transform="translate(215,573)"/>
<path d="M0 0 C-2.38573379 1.89213369 -4.07175348 3.02391783 -7 4 C-6.6875 2.0625 -6.6875 2.0625 -6 0 C-3 -1 -3 -1 0 0 Z " fill="#4B5C69" transform="translate(381,468)"/>
<path d="M0 0 C1.98 0.99 1.98 0.99 4 2 C4 3.65 4 5.3 4 7 C3.01 6.67 2.02 6.34 1 6 C0.67 4.02 0.34 2.04 0 0 Z " fill="#19202B" transform="translate(23,397)"/>
<path d="M0 0 C0.66 1.32 1.32 2.64 2 4 C1 7 1 7 -3 9 C-2.01 6.03 -1.02 3.06 0 0 Z " fill="#D2D3D5" transform="translate(415,341)"/>
<path d="M0 0 C0.66 0.99 1.32 1.98 2 3 C1.125 6.6875 1.125 6.6875 0 10 C-0.66 9.34 -1.32 8.68 -2 8 C-1.7578125 6.0546875 -1.7578125 6.0546875 -1.125 3.875 C-0.92132813 3.15054687 -0.71765625 2.42609375 -0.5078125 1.6796875 C-0.34023438 1.12539063 -0.17265625 0.57109375 0 0 Z " fill="#D5D6D8" transform="translate(418,332)"/>
<path d="M0 0 C0.33 0.99 0.66 1.98 1 3 C-1.70879335 4.35439668 -4.00933268 4.06501451 -7 4 C-4.61426621 2.10786631 -2.92824652 0.97608217 0 0 Z " fill="#2E353D" transform="translate(243,174)"/>
<path d="M0 0 C0 0.99 0 1.98 0 3 C-2.875 3.125 -2.875 3.125 -6 3 C-6.66 2.34 -7.32 1.68 -8 1 C-5.10765685 0.17361624 -3.11257569 0 0 0 Z " fill="#2E363F" transform="translate(268,167)"/>
<path d="M0 0 C0.33 1.32 0.66 2.64 1 4 C0.34 4 -0.32 4 -1 4 C-1.66 5.65 -2.32 7.3 -3 9 C-3.33 8.01 -3.66 7.02 -4 6 C-2.0625 2.8125 -2.0625 2.8125 0 0 Z " fill="#1A202A" transform="translate(48,140)"/>
<path d="M0 0 C0.33 0.66 0.66 1.32 1 2 C0.06421005 4.35981813 -0.93347808 6.69631264 -2 9 C-2.33 9 -2.66 9 -3 9 C-2.25 2.25 -2.25 2.25 0 0 Z " fill="#1D242D" transform="translate(434,128)"/>
<path d="M0 0 C0.66 0.33 1.32 0.66 2 1 C1.1875 3.4375 1.1875 3.4375 0 6 C-0.99 6.33 -1.98 6.66 -3 7 C-2.25 2.25 -2.25 2.25 0 0 Z " fill="#1C222C" transform="translate(455,93)"/>
<path d="M0 0 C3.68754757 0.49831724 5.60490662 1.10067643 8 4 C7.01 4.495 7.01 4.495 6 5 C1.29508197 2.59016393 1.29508197 2.59016393 0 0 Z " fill="#1F252E" transform="translate(454,50)"/>
<path d="M0 0 C1.3479743 0.63654342 2.68596724 1.29605388 4 2 C-2.0546875 2.1953125 -2.0546875 2.1953125 -4 2 C-4.66 1.34 -5.32 0.68 -6 0 C-3.44901433 -1.27549283 -2.66705587 -0.86287102 0 0 Z " fill="#1A212A" transform="translate(340,35)"/>
</svg>
